<svg xmlns="http://www.w3.org/2000/svg" xmlns:xlink="http://www.w3.org/1999/xlink" width="22.291" height="22.291" viewBox="0 0 22.291 22.291"><defs><style>.a{fill:url(#a);}</style><linearGradient id="a" x1="0.5" x2="0.5" y2="1" gradientUnits="objectBoundingBox"><stop offset="0" stop-color="#06b4fd"/><stop offset="1" stop-color="#68d2ff"/></linearGradient></defs><path class="a" d="M5.024,12.551a1.589,1.589,0,0,0-.63.921,1.951,1.951,0,0,0,.485,1.745,3.366,3.366,0,0,0,2,.84,5.44,5.44,0,0,0,3.214-1.1,6.865,6.865,0,0,0,1.535-1.518A9.606,9.606,0,0,0,7.01,12.1a4.5,4.5,0,0,0-1.987.452ZM21.4,15.507a11.186,11.186,0,1,0-1.228,2.164c-1.922-.937-5.072-2.52-7.027-3.457A8.436,8.436,0,0,1,9.3,16.783a5.434,5.434,0,0,1-2.762.21,3.716,3.716,0,0,1-1.971-1.034,4.344,4.344,0,0,1-.6-.824.1.1,0,0,1,.016.065,1.684,1.684,0,0,1-.162-.42,3.308,3.308,0,0,1-.081-.388.783.783,0,0,1,0-.275A1.9,1.9,0,0,1,3.78,13.6a2.563,2.563,0,0,1,.775-1.421,4.481,4.481,0,0,1,3.247-1.1,17.15,17.15,0,0,1,4.62,1.066A14.935,14.935,0,0,0,13.342,9.5h-6.7V8.771h3.441V7.317H5.928V6.574h4.151V5.12c0-.194.048-.355.355-.355h1.631V6.574h4.507V7.3H12.066V8.755h3.6a14.6,14.6,0,0,1-1.486,4.006C16.686,13.649,20.223,15.038,21.4,15.507Zm0,0"/></svg>