<svg xmlns="http://www.w3.org/2000/svg" width="16" height="16" viewBox="0 0 16 16"><defs><style>.a-app-update-log{fill:none;}.b-app-update-log{fill:#333;stroke:#fff;stroke-width:0.2px;}</style></defs><g transform="translate(-1726 -202)"><rect class="a-app-update-log" width="16" height="16" transform="translate(1726 202)"/><g transform="translate(1571.348 16.837)"><path class="b-app-update-log" d="M168.33,189.482a1.262,1.262,0,0,0-.44.038V188.4a2.15,2.15,0,0,0-2.078-2.214h-6.319a2.15,2.15,0,0,0-2.078,2.214v1.125a1.281,1.281,0,0,0-.44-.039,2,2,0,0,0-1.822,1.933V198.2a2.018,2.018,0,0,0,2.078,1.946h10.843a2.018,2.018,0,0,0,2.079-1.946v-6.781a2,2,0,0,0-1.822-1.933m-8.838-2.129h6.319a.992.992,0,0,1,.932,1.043v1.744l-4.023,2.415a.309.309,0,0,1-.138,0l-4.023-2.421V188.4a.992.992,0,0,1,.932-1.043m9.514,10.843a.866.866,0,0,1-.932.778H157.23a.866.866,0,0,1-.932-.778v-6.781a.843.843,0,0,1,.8-.769h.006a.228.228,0,0,1,.06.01l4.889,2.941.091.044a1.417,1.417,0,0,0,1.008,0l4.98-2.985a.211.211,0,0,1,.066-.011.843.843,0,0,1,.8.77Z" transform="translate(0)"/><path class="b-app-update-log" d="M381.772,308.379H377a.605.605,0,0,1,0-1.21h4.772a.605.605,0,0,1,0,1.21" transform="translate(-216.734 -118.379)"/><path class="b-app-update-log" d="M381.772,611.173H377a.605.605,0,0,1,0-1.21h4.772a.605.605,0,0,1,0,1.21" transform="translate(-216.734 -414.647)"/></g></g></svg>