<svg xmlns="http://www.w3.org/2000/svg" width="16" height="16" viewBox="0 0 16 16"><defs><style>.a-app-version{fill:none;}.b-app-version{fill:#333;stroke:#333;stroke-width:0.2px;}</style></defs><g transform="translate(-1726 -169)"><rect class="a-app-version" width="16" height="16" transform="translate(1726 169)"/><path class="b-app-version" d="M110.172,98.8a.989.989,0,0,0,1.363-.4,1.091,1.091,0,0,0-.1-1.476.99.99,0,0,0-1.363.4A1.089,1.089,0,0,0,110.172,98.8Zm.613,5.665s-1.06.664-.8-.175a10.2,10.2,0,0,1,.374-1.135c.231-.615.609-1.483,1.071-2.639,0,0,.242-.583-.773-.472a4.473,4.473,0,0,0-1.419.472,6.138,6.138,0,0,0-1.171.769l.348.211s1.966-1.468,1.47-.244a15.421,15.421,0,0,0-1.271,3.757c.024.733,1.37.3,1.37.3s.361-.156.773-.385c.543-.3,1.171-.718,1.171-.718l-.323-.227ZM110,93.4a7.7,7.7,0,1,0,7.7,7.7A7.7,7.7,0,0,0,110,93.4Zm4.78,12.479a6.761,6.761,0,1,1,1.979-4.78A6.715,6.715,0,0,1,114.779,105.879Z" transform="translate(1624.001 75.901)"/></g></svg>