<svg xmlns="http://www.w3.org/2000/svg" width="16" height="16" viewBox="0 0 16 16"><defs><style>.a{fill:none;}.b{fill:#333;}</style></defs><g transform="translate(-1726 -202)"><rect class="a" width="16" height="16" transform="translate(1726 202)"/><path class="b" d="M62.729,102.4H52.139a.939.939,0,0,0-.939.939v8.141l.005.1a.939.939,0,0,0,.934.837h1.582v1.67a.755.755,0,0,0,.19.5l.073.072a.752.752,0,0,0,.99-.01l2.5-2.232h.3v1.12l.005.1a.939.939,0,0,0,.934.837h3.668l1.534,1.429a.632.632,0,0,0,.431.17l.085-.006a.632.632,0,0,0,.547-.627v-.967h.608a.939.939,0,0,0,.939-.939v-6.406a.939.939,0,0,0-.939-.939h-1.92v-2.855A.939.939,0,0,0,62.729,102.4Zm.939,4.818H65.5v6.237H63.955v1.09l-1.17-1.089H58.8v-1.033h3.928a.939.939,0,0,0,.939-.939v-4.264Zm-1.025-3.793v7.97H57.089l-2.342,2.087V111.4H52.225v-7.97Z" transform="translate(1675.136 100.922)"/></g></svg>