<svg xmlns="http://www.w3.org/2000/svg" width="16" height="16" viewBox="0 0 16 16"><defs><style>.a-contact-service{fill:none;}.b-contact-service{fill:#333;stroke:#333;stroke-width:0.2px;}</style></defs><g transform="translate(-1726 -202)"><rect class="a-contact-service" width="16" height="16" transform="translate(1726 202)"/><path class="b-contact-service" d="M.813,8.126V9.754a1.219,1.219,0,1,0,2.438,0V8.126a1.219,1.219,0,1,0-2.438,0Zm11.2,3.106a2.024,2.024,0,0,1-.639-1.478V8.126A2.032,2.032,0,0,1,13.4,6.1a5.689,5.689,0,0,0-11.35,0,2.033,2.033,0,0,1,2.018,2.03V9.754A2.032,2.032,0,0,1,0,9.754V8.126A2.032,2.032,0,0,1,1.223,6.263a6.5,6.5,0,0,1,13,0,2.033,2.033,0,0,1,1.223,1.863V9.754a2.032,2.032,0,0,1-2.713,1.913,6.912,6.912,0,0,1-2.773,1.78A1.421,1.421,0,0,1,8.53,14.832H7.318a1.422,1.422,0,1,1,0-2.845H8.529a1.424,1.424,0,0,1,1.213.673,6.1,6.1,0,0,0,2.274-1.428Zm.174-3.106V9.754a1.219,1.219,0,1,0,2.438,0V8.126a1.219,1.219,0,1,0-2.438,0ZM7.319,14.02H8.53a.61.61,0,1,0,0-1.219H7.319a.61.61,0,1,0,0,1.219Z" transform="translate(1726.319 202.545)"/></g></svg>