<svg xmlns="http://www.w3.org/2000/svg" xmlns:xlink="http://www.w3.org/1999/xlink" width="147" height="147" viewBox="0 0 147 147">
  <defs>
    <style>
      .cls-1-default-user {
        fill: none;
      }

      .cls-2-default-user {
        fill: url(#未命名的渐变_16-default-user);
      }

      .cls-3-default-user {
        clip-path: url(#clip-path-default-user);
      }

      .cls-4-default-user {
        fill: #eecbbd;
      }

      .cls-5-default-user {
        fill: #f4c4b0;
      }

      .cls-6-default-user {
        fill: url(#未命名的渐变_15-default-user);
      }

      .cls-7-default-user {
        fill: url(#未命名的渐变_83-default-user);
      }

      .cls-8-default-user {
        fill: #f4ddc9;
      }

      .cls-10-default-user, .cls-9-default-user {
        fill: #7f8ba0;
      }

      .cls-9-default-user {
        stroke: #6e7d91;
        stroke-miterlimit: 10;
      }

      .cls-11-default-user {
        fill: #6e7d91;
      }
    </style>
    <linearGradient id="未命名的渐变_16-default-user" data-name="未命名的渐变 16" x1="73.5" x2="73.5" y2="147" gradientUnits="userSpaceOnUse">
      <stop offset="0" stop-color="#f9fafc"/>
      <stop offset="1" stop-color="#edeff3"/>
    </linearGradient>
    <clipPath id="clip-path-default-user">
      <rect class="cls-1-default-user" width="147" height="147"/>
    </clipPath>
    <linearGradient id="未命名的渐变_15-default-user" data-name="未命名的渐变 15" x1="73.5" y1="108" x2="73.5" y2="147" gradientUnits="userSpaceOnUse">
      <stop offset="0" stop-color="#6e7a97"/>
      <stop offset="1" stop-color="#9da8ba"/>
    </linearGradient>
    <linearGradient id="未命名的渐变_83-default-user" data-name="未命名的渐变 83" x1="73.5" y1="147" x2="73.5" y2="108" gradientUnits="userSpaceOnUse">
      <stop offset="0" stop-color="#9da8ba"/>
      <stop offset="1" stop-color="#61738e"/>
    </linearGradient>
  </defs>
  <g id="图层_2-default-user" data-name="图层 2">
    <g id="图层_1-2-default-user" data-name="图层 1">
      <rect class="cls-2-default-user" width="147" height="147"/>
      <g class="cls-3-default-user">
        <g>
          <path class="cls-4-default-user" d="M53.5,85s-4,2-7-6-6-14.74,3.5-14.87C53.5,72,53.5,85,53.5,85Z"/>
          <path class="cls-4-default-user" d="M93.56,85s4,2,7-6,6-14.74-3.5-14.87C93.56,72,93.56,85,93.56,85Z"/>
          <path class="cls-5-default-user" d="M57.5,86h32a0,0,0,0,1,0,0v33.35A3.65,3.65,0,0,1,85.85,123H61.15a3.65,3.65,0,0,1-3.65-3.65V86A0,0,0,0,1,57.5,86Z"/>
          <g>
            <path class="cls-6-default-user" d="M15.78,123.09,57.5,108l4,2.74a21.18,21.18,0,0,0,24,0l4-2.74,41.72,15.09a9.79,9.79,0,0,1,6.29,7.44l3,16.47H6.5l3-16.47A9.79,9.79,0,0,1,15.78,123.09Z"/>
            <path class="cls-7-default-user" d="M57.36,109.12l3.56,2.45a22.24,22.24,0,0,0,25.16,0l3.56-2.45L130.88,124a8.82,8.82,0,0,1,5.64,6.68L139.3,146H7.7l2.78-15.29A8.82,8.82,0,0,1,16.12,124l41.24-14.91M89.5,108l-4,2.74a21.2,21.2,0,0,1-24,0l-4-2.74L15.78,123.09a9.79,9.79,0,0,0-6.29,7.44L6.5,147h134l-3-16.47a9.79,9.79,0,0,0-6.29-7.44L89.5,108Z"/>
          </g>
          <path class="cls-8-default-user" d="M97.61,58l-.68-15.94-23.43.56-23.43-.56L49.39,58l2,11s-2,34.13,22.11,35c24.12-.83,22.11-35,22.11-35Z"/>
          <path class="cls-9-default-user" d="M96.5,69s4-6,5-9,2-12-1-14c-.87-.58-5,2-5,2V70Z"/>
          <path class="cls-9-default-user" d="M51.5,69a68.81,68.81,0,0,1,.27-12c.73-5,6.41-14,10.07-12S59.5,33,59.5,33s-3.5-2.5-9,3C46,40.53,40.5,58,51.5,69Z"/>
          <g>
            <path class="cls-10-default-user" d="M79.54,57.32c-5.6,0-11-2.26-16.19-6.7a20.62,20.62,0,0,1-4.16-5.92,12.32,12.32,0,0,1,2.89-15,20.13,20.13,0,0,1,12.75-4.74,16.49,16.49,0,0,1,11.33,4.43c4.58,4.2,8.71,6.32,12.28,6.32a7.13,7.13,0,0,0,4.73-1.64,22.66,22.66,0,0,1-.15,7.83C102.11,45.5,94.53,54,85.37,56.52A22.25,22.25,0,0,1,79.54,57.32Z"/>
            <path class="cls-11-default-user" d="M74.83,25.44a16,16,0,0,1,11,4.3c4.68,4.28,8.92,6.45,12.62,6.45A7.83,7.83,0,0,0,102.78,35a20.69,20.69,0,0,1-.25,6.8c-.88,3.52-8.3,11.82-17.29,14.28a22.1,22.1,0,0,1-5.7.78c-5.47,0-10.81-2.22-15.86-6.58a20.3,20.3,0,0,1-4-5.77A11.83,11.83,0,0,1,62.4,30.06a19.64,19.64,0,0,1,12.43-4.62m0-1a20.72,20.72,0,0,0-13.07,4.85,12.79,12.79,0,0,0-3,15.64A22,22,0,0,0,63,51c2.82,2.43,8.59,6.82,16.52,6.82a22.69,22.69,0,0,0,6-.82c9.15-2.5,17-11,18-15a24.29,24.29,0,0,0,0-9,6.29,6.29,0,0,1-5.06,2.2c-2.74,0-6.66-1.35-11.94-6.19a17,17,0,0,0-11.67-4.56Z"/>
          </g>
        </g>
      </g>
    </g>
  </g>
</svg>
