<svg xmlns="http://www.w3.org/2000/svg" width="16" height="16" viewBox="0 0 16 16"><defs><style>.a-encourage{fill:none;}.b-encourage{fill:#333;stroke:#fff;stroke-width:0.1px;}</style></defs><path class="a-encourage" d="M0,0H16V16H0Z"/><path class="b-encourage" d="M136.625,89.6a2.708,2.708,0,0,1,.92.23,2.472,2.472,0,0,1,1.15,1.609,5.278,5.278,0,0,1,0,2.988v.23c0,.23.115.345.345.46h2.645a1.581,1.581,0,0,1,1.38.46,1.505,1.505,0,0,1,.23,1.264c-.345,1.724-.805,3.447-1.265,5.056a3.439,3.439,0,0,1-.46,1.149l-.23.46a1.414,1.414,0,0,1-1.265.8H134.44a3.405,3.405,0,0,1-1.15-.23,1.444,1.444,0,0,1-1.035-1.379V95.92a1.418,1.418,0,0,1,.46-.919,5.2,5.2,0,0,0,2.3-2.873c.115-.345.115-.689.23-1.149A1.476,1.476,0,0,1,136.51,89.6Zm-6.67,5.516a1.659,1.659,0,0,1,1.725,1.379V102.7a1.572,1.572,0,0,1-1.725,1.379h-.23A1.659,1.659,0,0,1,128,102.7V96.495a1.572,1.572,0,0,1,1.725-1.379Zm6.67-4.367c-.115,0-.23.115-.23.345v.46a2.7,2.7,0,0,1-.23.919,6.742,6.742,0,0,1-2.3,3.218l-.345.23v6.78c0,.23,0,.23.23.345a1.959,1.959,0,0,0,.805.115h5.405c.23,0,.23,0,.345-.115l.23-.46.115-.345.115-.23.115-.23.23-1.034.46-1.609.23-1.149.23-1.034.115-.345v-.345a1.19,1.19,0,0,0-.46-.115h-2.645a1.475,1.475,0,0,1-1.5-1.609v-.115a5.065,5.065,0,0,0,0-2.643,1.813,1.813,0,0,0-.575-.919A.423.423,0,0,0,136.625,90.749Zm-6.67,5.516h-.23c-.345,0-.575.115-.575.23V102.7c0,.115.115.23.46.23h.345a.676.676,0,0,0,.575-.23V96.495A.88.88,0,0,0,129.955,96.265Z" transform="translate(-127.678 -88.948)"/></svg>