<svg xmlns="http://www.w3.org/2000/svg" width="16" height="16" viewBox="0 0 16 16"><defs><style>.a-feedback{fill:none;}.b-feedback{fill:#333;}</style></defs><g transform="translate(-1726 -202)"><rect class="a-feedback" width="16" height="16" transform="translate(1726 202)"/><path class="b-feedback" d="M121.223,175.158a2.067,2.067,0,0,1,2.067,2.067v7.75a2.067,2.067,0,0,1-2.067,2.067h-5.109a.258.258,0,0,0-.111.025l-4.118,1.951a.517.517,0,0,1-.738-.467v-1.509h-1.292a2.067,2.067,0,0,1-2.067-2.067v-7.75a2.067,2.067,0,0,1,2.067-2.067h11.367Zm0,1.033H109.856a1.033,1.033,0,0,0-1.033,1.033v7.75a1.033,1.033,0,0,0,1.033,1.033h2.325v1.725l3.433-1.626.21-.1h5.4a1.033,1.033,0,0,0,1.033-1.033v-7.75A1.033,1.033,0,0,0,121.223,176.191Z" transform="translate(1618.71 28.696)"/><path class="b-feedback" d="M296.421,363.789m.517,0h7.233a.457.457,0,0,1,.517.517h0a.457.457,0,0,1-.517.517h-7.233a.457.457,0,0,1-.517-.517h0A.457.457,0,0,1,296.938,363.789Z" transform="translate(1433.696 -156.081)"/><path class="b-feedback" d="M296.421,525.474m.517,0h4.133a.457.457,0,0,1,.517.517h0a.457.457,0,0,1-.517.517h-4.133a.457.457,0,0,1-.517-.517h0A.457.457,0,0,1,296.938,525.474Z" transform="translate(1433.696 -314.666)"/></g></svg>