<svg xmlns="http://www.w3.org/2000/svg" xmlns:xlink="http://www.w3.org/1999/xlink" width="32.396" height="32.401" viewBox="0 0 32.396 32.401"><defs><style>.a-gift-colorful{fill:url(#a-gift-colorful);}</style><linearGradient id="a-gift-colorful" x1="0.109" y1="0.06" x2="0.886" y2="1" gradientUnits="objectBoundingBox"><stop offset="0" stop-color="#5e7ff4"/><stop offset="0.498" stop-color="#b5a7ff"/><stop offset="1" stop-color="#7bedff"/></linearGradient></defs><path class="a-gift-colorful" d="M115.3,104.646v10.529a2.43,2.43,0,0,1-2.43,2.43H102.746V104.646Zm-14.983,0V117.6H90.192a2.43,2.43,0,0,1-2.43-2.43V104.646Zm4.859-19.438a4.859,4.859,0,0,1,4.209,7.29H115.3a2.43,2.43,0,0,1,2.43,2.43v4.859a2.43,2.43,0,0,1-2.287,2.426l-.142,0H102.746V92.5h-2.43v9.719H87.763a2.43,2.43,0,0,1-2.43-2.43V94.927a2.43,2.43,0,0,1,2.43-2.43h5.915a4.859,4.859,0,0,1,7.854-5.645,4.848,4.848,0,0,1,3.645-1.645Zm-7.289,2.43a2.43,2.43,0,1,0,0,4.859h2.43v-2.43A2.43,2.43,0,0,0,97.887,87.638Zm7.289,0a2.43,2.43,0,0,0-2.426,2.287l0,.142V92.5h2.43a2.43,2.43,0,1,0,0-4.859Z" transform="translate(-85.333 -85.203)"/></svg>