<svg xmlns="http://www.w3.org/2000/svg" width="16" height="16" viewBox="0 0 16 16"><defs><style>.a-helper-doc{fill:none;}.b-helper-doc{fill:#333;}</style></defs><g transform="translate(-1726 -202)"><rect class="a-helper-doc" width="16" height="16" transform="translate(1726 202)"/><path class="b-helper-doc" d="M80,133.777v-8.327a1.475,1.475,0,0,0-.619-1.217,2.433,2.433,0,0,0-1.491-.258l-2.111-.005-2.372-.007-1.337,0-1.138-.87-.7-.535c-.043-.034-.086-.069-.131-.1a.57.57,0,0,0-.332-.07l-1.728-.009c-.526,0-1.053-.006-1.579-.008a1.451,1.451,0,0,0-1.28.738,1.565,1.565,0,0,0-.181.76V134a1.46,1.46,0,0,0,.691,1.239,1.907,1.907,0,0,0,1.065.207H78.6a1.448,1.448,0,0,0,1-.434,1.463,1.463,0,0,0,.4-1ZM66.173,123.46l.006,0a.883.883,0,0,1,.084-.048.956.956,0,0,1,.114-.031c.117-.008.238,0,.355,0l.805,0,1.869.009h.272l1.536,1.174.35.267a.51.51,0,0,0,.344.133c.14,0,.281,0,.42,0l2.182.006,2.624.007c.473,0,.945,0,1.418,0l.067,0a1,1,0,0,1,.114.031.939.939,0,0,1,.084.048l.007,0c.015.013.029.026.043.04s.027.029.04.043l0,.007a.9.9,0,0,1,.048.084.98.98,0,0,1,.031.113c.005.088,0,.176,0,.264v1.255h-1.2l-1.445,0-1.752,0-1.922,0-1.948,0-1.809,0-1.536,0-1.1,0H66V125.03c0-.406,0-.811,0-1.217,0-.022,0-.044,0-.065a1.067,1.067,0,0,1,.031-.114.925.925,0,0,1,.048-.084l0-.007c.013-.015.026-.029.04-.043S66.158,123.473,66.173,123.46Zm11.176,10.98h-10.9c-.023,0-.046,0-.068,0a1.022,1.022,0,0,1-.114-.031.922.922,0,0,1-.084-.049l-.006,0c-.015-.013-.029-.026-.043-.04l-.04-.043,0-.007a.92.92,0,0,1-.048-.084,1.023,1.023,0,0,1-.031-.114c-.006-.1,0-.206,0-.308v-5.865H67.07l1.444,0,1.754,0,1.922,0,1.948,0,1.809,0,1.536,0H79v5.109c0,.339,0,.678,0,1.016,0,.021,0,.042,0,.063a.99.99,0,0,1-.031.114.883.883,0,0,1-.048.084l0,.007c-.013.015-.026.029-.04.043s-.029.027-.043.04l-.007,0a.936.936,0,0,1-.084.049,1,1,0,0,1-.114.031l-.055,0H77.349Z" transform="translate(1661.5 81.405)"/></g></svg>