<svg xmlns="http://www.w3.org/2000/svg" width="13.292" height="13.291" viewBox="0 0 13.292 13.291"><defs><style>.a{fill:#4f46e5;}</style></defs><g transform="translate(-63.663 -65.717)"><path class="a" d="M70.309,65.717a6.646,6.646,0,1,0,6.646,6.646A6.653,6.653,0,0,0,70.309,65.717Zm0,12.184a5.538,5.538,0,1,1,5.538-5.538A5.544,5.544,0,0,1,70.309,77.9Z" transform="translate(0 0)"/><path class="a" d="M458.456,257.16l-2.038-1.179v-3.214a.491.491,0,1,0-.983,0v3.439c0,.182.226.335.374.42a.726.726,0,0,0,.221.156l2.027,1.228a.439.439,0,0,0,.625-.18A.507.507,0,0,0,458.456,257.16Z" transform="translate(-385.703 -183.487)"/></g></svg>