<svg xmlns="http://www.w3.org/2000/svg" xmlns:xlink="http://www.w3.org/1999/xlink" width="15.439" height="15.178" viewBox="0 0 15.439 15.178"><defs><style>.a{fill:url(#a);}.b{fill:#60bf71;}.c{fill:#0e8623;}</style><linearGradient id="a" x1="0.091" y1="0.936" x2="0.808" y2="0.855" gradientUnits="objectBoundingBox"><stop offset="0" stop-color="#0e8623"/><stop offset="0.713" stop-color="#11cd32"/><stop offset="1" stop-color="#fff"/></linearGradient></defs><g transform="translate(-1600 -307.511)"><path class="a" d="M2.233.893a1.342,1.342,0,0,0-1.34,1.34V9.225a1.342,1.342,0,0,0,1.34,1.34h4.44a1.342,1.342,0,0,0,1.34-1.34V2.233c0-.115-.153-.421-.727-.841a6.234,6.234,0,0,0-.819-.5H2.233m0-.893h4.44S8.907,1,8.907,2.233V9.225a2.233,2.233,0,0,1-2.233,2.233H2.233A2.233,2.233,0,0,1,0,9.225V2.233A2.233,2.233,0,0,1,2.233,0Z" transform="translate(1600 311.524) rotate(-13)"/><path class="b" d="M-2821.022-12910.631l-1.439-1.475-2.128-.409.168-.878,2.4.463,1.226,1.256,1.784-.678.125.022,2.517.485-.169.878-2.392-.461Z" transform="translate(4430.133 13227.2)"/><path class="c" d="M2.233.893a1.342,1.342,0,0,0-1.34,1.34V9.672a1.342,1.342,0,0,0,1.34,1.34H7.121a1.342,1.342,0,0,0,1.34-1.34V2.233A1.342,1.342,0,0,0,7.121.893H2.233m0-.893H7.121A2.233,2.233,0,0,1,9.354,2.233V9.672a2.233,2.233,0,0,1-2.233,2.233H2.233A2.233,2.233,0,0,1,0,9.672V2.233A2.233,2.233,0,0,1,2.233,0Z" transform="translate(1606.257 307.511) rotate(11)"/></g></svg>