<svg xmlns="http://www.w3.org/2000/svg" width="15.605" height="15.621" viewBox="0 0 15.605 15.621"><defs><style>.a{fill:#009fd6;}.b{fill:#66ccef;}</style></defs><g transform="translate(-0.533)"><path class="a" d="M8.3,1.4,9.865,2.961l.325.325h2.6v2.6l.325.325,1.53,1.53-1.53,1.53-.325.325v2.6h-2.6l-.325.325-1.53,1.66-1.53-1.53-.325-.325h-2.6v-2.6l-.325-.325L1.957,7.811,3.519,6.183l.325-.325V3.319H6.481l.325-.358L8.3,1.4M8.3,0a.377.377,0,0,0-.325.13L5.993,2.18H3.129a.393.393,0,0,0-.423.423V5.4L.655,7.453a.5.5,0,0,0,0,.651l2.05,2.05v2.864a.393.393,0,0,0,.423.423H5.993l2.05,2.05a.395.395,0,0,0,.586,0l2.05-2.05h2.864a.393.393,0,0,0,.423-.423V10.154l2.05-2.05a.412.412,0,0,0,0-.586l-2.05-2.05V2.6a.393.393,0,0,0-.423-.423H10.679L8.629.13A.418.418,0,0,0,8.3,0Z" transform="translate(0 0)"/><path class="b" d="M356.845,392.171a.57.57,0,0,0-.814,0l-2.473,2.473-1.107-1.107a.575.575,0,0,0-.814.814l1.5,1.5a.6.6,0,0,0,.521.163.665.665,0,0,0,.293-.163l2.864-2.864A.6.6,0,0,0,356.845,392.171Z" transform="translate(-345.58 -386.02)"/></g></svg>