<svg width="20" height="20" viewBox="0 0 20 20" fill="none" xmlns="http://www.w3.org/2000/svg">
<path d="M9.35254 1C13.9566 1.00008 17.7049 4.73284 17.7051 9.31836C17.7051 11.3083 16.9976 13.1369 15.8223 14.5703L18.7373 17.4736C19.0876 17.8225 19.0876 18.3885 18.7373 18.7373C18.5607 18.9132 18.3331 19 18.1025 19C17.8722 18.9999 17.6423 18.9131 17.4688 18.7373L14.5449 15.8262C13.1179 16.9581 11.3137 17.6377 9.35254 17.6377C4.74825 17.6377 1 13.9071 1 9.31836C1.00019 4.72981 4.74836 1 9.35254 1ZM9.35254 2.78906C5.73628 2.78906 2.79608 5.71971 2.7959 9.31836C2.7959 12.9172 5.73617 15.8486 9.35254 15.8486C12.9688 15.8486 15.9082 12.9171 15.9082 9.31836C15.908 5.71976 12.9687 2.78914 9.35254 2.78906Z" fill="#292B31" fill-opacity="0.8"/>
</svg>
