<svg xmlns="http://www.w3.org/2000/svg" xmlns:xlink="http://www.w3.org/1999/xlink" width="21.657" height="15.472" viewBox="0 0 21.657 15.472" class="icon_ai-icon-ai"><defs><style>.icon_ai-icon-ai .a-icon-ai{fill:url(#a-icon-ai);}.icon_ai-icon-ai .b-icon-ai{fill:url(#b-icon-ai);}</style><linearGradient id="a-icon-ai" x1="0.5" x2="0.511" y2="0.938" gradientUnits="objectBoundingBox"><stop offset="0" stop-color="#aea8ff"/><stop offset="0.502" stop-color="#7d7aff"/><stop offset="1" stop-color="#58b7ff"/></linearGradient><linearGradient id="b-icon-ai" x1="0.443" y1="0.065" x2="0.099" y2="0.976" gradientUnits="objectBoundingBox"><stop offset="0" stop-color="#fff" stop-opacity="0"/><stop offset="1" stop-color="#fff"/></linearGradient></defs><g transform="translate(-7397 1027)"><path class="a-icon-ai" d="M19.385,146.2a2.31,2.31,0,0,0-1.609.647,2.184,2.184,0,0,0-.665,1.562v11.05a2.177,2.177,0,0,0,.665,1.563,2.322,2.322,0,0,0,3.218,0,2.184,2.184,0,0,0,.665-1.562V148.406a2.176,2.176,0,0,0-.665-1.562,2.308,2.308,0,0,0-1.609-.647Zm-7.794,2.21a3.558,3.558,0,0,0-1.333-1.6,3.713,3.713,0,0,0-4.064,0,3.558,3.558,0,0,0-1.338,1.606L.094,159.857a1.292,1.292,0,0,0,.144,1.228,1.336,1.336,0,0,0,.486.424,1.391,1.391,0,0,0,.634.156H8.836a1.4,1.4,0,0,0,.632-.159,1.352,1.352,0,0,0,.484-.425,1.3,1.3,0,0,0,.139-1.222l-.745-1.791a1.335,1.335,0,0,0-.5-.594,1.392,1.392,0,0,0-.755-.227,1.4,1.4,0,0,1-.632-.159,1.352,1.352,0,0,1-.484-.425,1.3,1.3,0,0,1-.139-1.222,1.465,1.465,0,0,1,.55-.662,1.53,1.53,0,0,1,1.677,0,1.444,1.444,0,0,1,.55.66l2.25,5.411a1.323,1.323,0,0,0,.5.6,1.377,1.377,0,0,0,.757.224h1.988a1.4,1.4,0,0,0,.634-.156,1.351,1.351,0,0,0,.486-.426,1.3,1.3,0,0,0,.141-1.227L11.591,148.41h0Z" transform="translate(7396.999 -1173.197)"/><path class="b-icon-ai" d="M7405.05-1016.677s-.389.05-.751.1c-1.275.224-4.194,2.333-5.979,3.119-1.172.448-1.241-.62-1.241-.62l2.447-5.876,4.429,1.241a1.644,1.644,0,0,0-.069,1.258C7404.127-1016.748,7405.05-1016.677,7405.05-1016.677Z" transform="translate(0.008 0.725)"/></g></svg>