<svg xmlns="http://www.w3.org/2000/svg" width="16.615" height="16.665" viewBox="0 0 16.615 16.665"><defs><style>.a{fill:#e44;}</style></defs><path class="a" d="M2.911,0,1.544,1.15A54.541,54.541,0,0,1,8.235,7.133c-3.05,3.075-5.441,6.1-6.7,7.316l2.6,2.175A39.044,39.044,0,0,1,9.76,8.791a39.426,39.426,0,0,1,5.633,7.874s2.533-2.691,2.758-2.275c-.975-1.1-3.358-4.3-6.558-7.574a52.1,52.1,0,0,1,6.091-5.391l-.6-1.117a31.5,31.5,0,0,0-7,5.041A33.311,33.311,0,0,0,2.911,0Z" transform="translate(-1.536)"/></svg>