<svg xmlns="http://www.w3.org/2000/svg" xmlns:xlink="http://www.w3.org/1999/xlink" width="20" height="20" viewBox="0 0 20 20"><defs><style>.a-icon-wechat{fill:none;opacity:0.46;}.b-icon-wechat{fill:url(#a-icon-wechat);}</style><linearGradient id="a-icon-wechat" x1="0.5" x2="0.5" y2="1" gradientUnits="objectBoundingBox"><stop offset="0" stop-color="#00c11a"/><stop offset="1" stop-color="#4ee162"/></linearGradient></defs><g transform="translate(0.195 -0.265)"><circle class="a-icon-wechat" cx="10" cy="10" r="10" transform="translate(-0.195 0.265)"/><path class="b-icon-wechat" d="M86.841,160.78a5.2,5.2,0,0,1,.6.038c-.535-2.615-3.2-4.558-6.24-4.558-3.4,0-6.185,2.432-6.185,5.52a5.375,5.375,0,0,0,2.475,4.382l-.619,1.953,2.162-1.138a10.13,10.13,0,0,0,2.167.326c.194,0,.386-.01.577-.026a5.05,5.05,0,0,1-.191-1.36A5.178,5.178,0,0,1,86.841,160.78Zm-3.325-1.76a.812.812,0,0,1,0,1.623.819.819,0,1,1,0-1.623Zm-4.329,1.623a.819.819,0,1,1,0-1.623.812.812,0,0,1,0,1.623Zm13.3,5.2c0-2.6-2.475-4.711-5.254-4.711a4.739,4.739,0,1,0,0,9.42,7.421,7.421,0,0,0,1.856-.325l1.7.975-.465-1.622A4.963,4.963,0,0,0,92.486,165.839Zm-6.959-.812a.65.65,0,0,1,0-1.3.659.659,0,1,1,0,1.3Zm3.4,0a.65.65,0,0,1,0-1.3.659.659,0,1,1,0,1.3Z" transform="translate(-74.198 -153.631)"/></g></svg>