<svg xmlns="http://www.w3.org/2000/svg" width="20.681" height="21.326" viewBox="0 0 20.681 21.326"><defs><style>.a-icon-back15,.b-icon-back15{fill:#333;}.b-icon-back15{stroke:rgba(0,0,0,0);font-size:10px;font-family:SourceHanSansSC-Bold, Source Han Sans SC;font-weight:700;}</style></defs><g transform="translate(-408.201 -5818.674)"><path class="a-icon-back15" d="M99.266,88.627l-3.888.95a.2.2,0,0,1-.245-.19l-.02-4.005a.2.2,0,0,1,.32-.156l3.909,3.053a.2.2,0,0,1-.074.349Zm-4.158,7.467,1.406-.484a.2.2,0,0,1,.251.119,8.79,8.79,0,1,0,2.028-9.247,9.029,9.029,0,0,0-.709.8L96.6,86.123a10.662,10.662,0,1,1-1.614,10.229.2.2,0,0,1,.122-.258Z" transform="translate(313.227 5736.648)"/><text class="b-icon-back15" transform="translate(412 5833)"><tspan x="0" y="0">15</tspan></text></g></svg>