<svg xmlns="http://www.w3.org/2000/svg" width="16" height="16" viewBox="0 0 16 16"><defs><style>.a-icon-settings{fill:none;}.b-icon-settings{fill:#333;}</style></defs><g transform="translate(-1726 -202)"><rect class="a-icon-settings" width="16" height="16" transform="translate(1726 202)"/><path class="b-icon-settings" d="M15.687,5.943c-.093-.489-.392-.806-.761-.806h-.08a1.942,1.942,0,0,1-1.94-1.94,2.211,2.211,0,0,1,.169-.74,1.018,1.018,0,0,0-.343-1.231l-.023-.016L10.742.118,10.717.107A1.038,1.038,0,0,0,10.3.023a1.126,1.126,0,0,0-.8.326,2.84,2.84,0,0,1-1.532.858A2.845,2.845,0,0,1,6.426.333,1.126,1.126,0,0,0,5.62,0a1.036,1.036,0,0,0-.409.081L5.185.092,3.149,1.21l-.024.017a1.016,1.016,0,0,0-.345,1.23A2.192,2.192,0,0,1,2.95,3.2a1.942,1.942,0,0,1-1.94,1.94H.929c-.37,0-.668.316-.761.806A10.076,10.076,0,0,0,0,7.5,10.074,10.074,0,0,0,.168,9.048c.093.489.391.806.761.806h.08a1.942,1.942,0,0,1,1.94,1.94,2.207,2.207,0,0,1-.169.74,1.019,1.019,0,0,0,.342,1.231l.023.016,1.929,1.079.025.011a1.026,1.026,0,0,0,.415.085,1.107,1.107,0,0,0,.806-.341A2.838,2.838,0,0,1,7.887,13.7a2.863,2.863,0,0,1,1.576.93,1.107,1.107,0,0,0,.812.347h0a1.024,1.024,0,0,0,.408-.082l.025-.011,2-1.1.024-.017a1.017,1.017,0,0,0,.344-1.229,2.231,2.231,0,0,1-.17-.741,1.942,1.942,0,0,1,1.94-1.94h.079c.371,0,.67-.316.762-.805A9.986,9.986,0,0,0,15.853,7.5,10.036,10.036,0,0,0,15.687,5.943ZM5.525,13.834l-1.687-.943a3.223,3.223,0,0,0,.226-1.1A3.052,3.052,0,0,0,1.246,8.749,8.465,8.465,0,0,1,1.116,7.5a8.483,8.483,0,0,1,.13-1.253A3.052,3.052,0,0,0,4.063,3.2a3.222,3.222,0,0,0-.225-1.1l1.8-.986h0a5.359,5.359,0,0,0,.681.578,2.909,2.909,0,0,0,1.653.628,2.911,2.911,0,0,0,1.64-.615,5.333,5.333,0,0,0,.677-.567h0l1.731.962a3.224,3.224,0,0,0-.226,1.1,3.052,3.052,0,0,0,2.818,3.045,8.508,8.508,0,0,1,.13,1.253,8.475,8.475,0,0,1-.13,1.253,3.052,3.052,0,0,0-2.818,3.045,3.221,3.221,0,0,0,.225,1.1l-1.752.968a5.44,5.44,0,0,0-.684-.6,2.9,2.9,0,0,0-1.694-.666,2.906,2.906,0,0,0-1.681.654A5.484,5.484,0,0,0,5.525,13.834ZM10.7,7.485a2.807,2.807,0,1,0-2.807,2.807A2.81,2.81,0,0,0,10.7,7.485ZM7.893,5.792A1.693,1.693,0,1,1,6.2,7.485,1.7,1.7,0,0,1,7.893,5.792Z" transform="translate(1726.072 202.511)"/></g></svg>