<svg xmlns="http://www.w3.org/2000/svg" width="15.209" height="14.468" viewBox="0 0 15.209 14.468"><defs><style>.a{fill:#ff961d;}.b{fill:#ffb765;}</style></defs><g transform="translate(-0.178 -0.17)"><path class="a" d="M200.085,49.419a3.21,3.21,0,1,0,3.21,3.21A3.21,3.21,0,0,0,200.085,49.419Zm0,1.3a1.912,1.912,0,1,1-1.912,1.912A1.912,1.912,0,0,1,200.085,50.716Z" transform="translate(-193.77 -48.516)"/><path class="b" d="M713.569,1.7a.649.649,0,0,1,.872.29,3.829,3.829,0,0,1,.225.611,5.388,5.388,0,0,1-.206,3.582.649.649,0,0,1-1.2-.491,4.108,4.108,0,0,0,.094-2.938l-.053-.141-.021-.043a.649.649,0,0,1,.289-.871ZM716.105.251a.649.649,0,0,1,.883.252,4.048,4.048,0,0,1,.193.408l.111.282c.037.1.075.213.113.331a8.392,8.392,0,0,1-.393,6.148.649.649,0,0,1-1.181-.537,7.113,7.113,0,0,0,.338-5.218q-.069-.218-.152-.431l-.09-.209-.072-.145a.649.649,0,0,1,.252-.882Z" transform="translate(-702.423 0)"/><path class="a" d="M7.878,590.359H5.019l-.63.006-.519.015-.293.016-.257.021q-.166.016-.331.044L2.8,590.5c-.092.022-.177.046-.26.074l-.163.062-.16.073a3.577,3.577,0,0,0-1.644,1.6A3.857,3.857,0,0,0,.2,594.018l-.013.4-.01.721v.986a.649.649,0,0,0,.649.649H11.8a.649.649,0,0,0,.649-.649V595.2l-.008-.63-.008-.358-.013-.313-.019-.274-.024-.241q-.007-.056-.015-.111l-.034-.2q-.019-.093-.043-.184l-.052-.17q-.013-.041-.029-.081l-.067-.161a3.577,3.577,0,0,0-1.64-1.724,2.913,2.913,0,0,0-.451-.186l-.195-.055q-.106-.025-.213-.044l-.239-.034-.266-.027-.146-.011-.324-.016-.368-.01-.42-.005Zm-.022,1.3.568.009.311.011.265.017.118.009.207.027.177.031a1.77,1.77,0,0,1,.288.086l.121.056a2.272,2.272,0,0,1,1,1l.05.107.044.118a1.278,1.278,0,0,1,.037.131l.032.15.025.174.01.1.019.223.012.26.009.3.009.765v.249H1.476l0-.569.011-.6.013-.326.01-.144.025-.252a1.974,1.974,0,0,1,.187-.686,2.278,2.278,0,0,1,1-1l.054-.028.113-.046a1.552,1.552,0,0,1,.191-.058l.15-.03.174-.025.2-.02.241-.015.281-.011.513-.01.2,0H7.856Z" transform="translate(0 -582.139)"/></g></svg>