<svg width="20" height="20" viewBox="0 0 20 20" fill="none" xmlns="http://www.w3.org/2000/svg">
<path d="M16.6455 4.22904C17.0597 4.22904 17.3955 4.56483 17.3955 4.97904C17.3955 5.39326 17.0597 5.72904 16.6455 5.72904H3.3125C2.89829 5.72904 2.5625 5.39326 2.5625 4.97904C2.5625 4.56483 2.89829 4.22904 3.3125 4.22904H16.6455Z" fill="#292B31"/>
<path d="M16.6455 9.22904C17.0597 9.22904 17.3955 9.56483 17.3955 9.97904C17.3955 10.3933 17.0597 10.729 16.6455 10.729H3.3125C2.89829 10.729 2.5625 10.3933 2.5625 9.97904C2.5625 9.56483 2.89829 9.22904 3.3125 9.22904H16.6455Z" fill="#292B31"/>
<path d="M16.6455 14.229C17.0597 14.229 17.3955 14.5648 17.3955 14.979C17.3955 15.3933 17.0597 15.729 16.6455 15.729H3.3125C2.89829 15.729 2.5625 15.3933 2.5625 14.979C2.5625 14.5648 2.89829 14.229 3.3125 14.229H16.6455Z" fill="#292B31"/>
</svg>
