<svg xmlns="http://www.w3.org/2000/svg" xmlns:xlink="http://www.w3.org/1999/xlink" width="44" height="44" viewBox="0 0 44 44"><defs><style>.a-icon-send-purple2{opacity:0.6;fill:url(#a-icon-send-purple2);}.b-icon-send-purple2{fill:#fff;}.c-icon-send-purple2{filter:url(#b-icon-send-purple2);}</style><linearGradient id="a-icon-send-purple2" x1="1" x2="0.313" y2="0.93" gradientUnits="objectBoundingBox"><stop offset="0" stop-color="#0098ff"/><stop offset="0.301" stop-color="#4959e7"/><stop offset="0.54" stop-color="#5d4ce9"/><stop offset="1" stop-color="#965aff"/></linearGradient><filter id="b-icon-send-purple2" x="0" y="0" width="44" height="44" filterUnits="userSpaceOnUse"><feOffset dy="3" input="SourceAlpha"/><feGaussianBlur stdDeviation="2" result="c"/><feFlood flood-color="#4f46e5" flood-opacity="0.2"/><feComposite operator="in" in2="c"/><feComposite in="SourceGraphic"/></filter></defs><g transform="translate(-863.157 -988.027)"><g class="c-icon-send-purple2" transform="matrix(1, 0, 0, 1, 863.16, 988.03)"><rect class="a-icon-send-purple2" width="32" height="32" rx="16" transform="translate(6 3)"/></g><g transform="translate(878.626 998.534)"><path class="b-icon-send-purple2" d="M426.643,16.549h-3.017v10.81a1.257,1.257,0,0,0,1.256,1.256h.5a1.256,1.256,0,0,0,1.256-1.256Z" transform="translate(-418.619 -11.63)"/><path class="b-icon-send-purple2" d="M143.148,379.08l-5.2-8.439a1.257,1.257,0,0,0-2.131-.014l-5.344,8.439A1.256,1.256,0,0,0,131.531,381h10.548a1.256,1.256,0,0,0,1.071-1.916Z" transform="translate(-130.273 -370.044)"/></g></g></svg>