<svg xmlns="http://www.w3.org/2000/svg" width="14.456" height="13.425" viewBox="0 0 14.456 13.425"><defs><style>.a{fill:#333;stroke:#333;stroke-width:0.2px;}</style></defs><path class="a" d="M118.273,153.077a.374.374,0,0,1,.374.374v6.8l1.078-1.077a.374.374,0,0,1,.529,0l.529.529a.374.374,0,0,1,0,.529l-2.037,2.037a.936.936,0,0,1-1.6-.6l0-.061v-8.159a.374.374,0,0,1,.374-.374Zm-3.744,7.488a.374.374,0,0,1,.374.374v.749a.374.374,0,0,1-.374.374h-7.488a.374.374,0,0,1-.374-.374v-.749a.374.374,0,0,1,.374-.374Zm0-5.616a.374.374,0,0,1,.374.374v.749a.374.374,0,0,1-.374.374h-7.488a.374.374,0,0,1-.374-.374v-.749a.374.374,0,0,1,.374-.374Zm5.99-5.616a.374.374,0,0,1,.374.374v.749a.374.374,0,0,1-.374.374H107.041a.374.374,0,0,1-.374-.374v-.749a.374.374,0,0,1,.374-.374h13.478Z" transform="translate(-106.567 -149.233)"/></svg>