<svg xmlns="http://www.w3.org/2000/svg" width="15.297" height="14.787" viewBox="0 0 15.297 14.787"><defs><style>.a{fill:#5b8dff;}.b{fill:#fff;}.c{fill:#004eff;}</style></defs><g transform="translate(-1715 -198.486)"><path class="a" d="M-.03,7.273-1,7.208-.513-.067.455,0Z" transform="translate(1718.181 203.365)"/><path class="a" d="M8.914,2.881-.3-.029l.292-.925,9.215,2.91Z" transform="translate(1719.763 202.852)"/><path class="a" d="M-.012,4.823l-.4-.883L10.256-.91l.4.883Z" transform="translate(1718.366 206.225)"/><ellipse class="b" cx="3.5" cy="3" rx="3.5" ry="3" transform="translate(1715 199.273)"/><path class="c" d="M3.569,1.02A2.549,2.549,0,1,0,6.119,3.569,2.552,2.552,0,0,0,3.569,1.02m0-1.02A3.569,3.569,0,1,1,0,3.569,3.569,3.569,0,0,1,3.569,0Z" transform="translate(1715 198.486)"/><circle class="b" cx="2.5" cy="2.5" r="2.5" transform="translate(1715 208.273)"/><path class="c" d="M2.549,1.02a1.53,1.53,0,1,0,1.53,1.53,1.531,1.531,0,0,0-1.53-1.53m0-1.02A2.549,2.549,0,1,1,0,2.549,2.549,2.549,0,0,1,2.549,0Z" transform="translate(1715 208.174)"/><circle class="b" cx="1.5" cy="1.5" r="1.5" transform="translate(1727 204.273)"/><path class="c" d="M2.04,1.02a1.02,1.02,0,1,0,1.02,1.02A1.021,1.021,0,0,0,2.04,1.02M2.04,0A2.04,2.04,0,1,1,0,2.04,2.04,2.04,0,0,1,2.04,0Z" transform="translate(1726.218 203.585)"/></g></svg>