<svg xmlns="http://www.w3.org/2000/svg" width="15.797" height="15.901" viewBox="0 0 15.797 15.901"><defs><style>.a{fill:#8982ff;}.b{fill:#4f46e5;}</style></defs><g transform="translate(-67.78 -64.83)"><path class="a" d="M359.233,172.04a.533.533,0,0,1,0-1.067,1.688,1.688,0,0,0,1.686-1.686v-1.206a2.753,2.753,0,0,1,2.715-2.753h.061a.533.533,0,1,1,.015,1.067h-.061a1.693,1.693,0,0,0-1.663,1.686v1.206A2.756,2.756,0,0,1,359.233,172.04Z" transform="translate(-285.747 -98.71)"/><path class="a" d="M363.7,489.6h-.068a2.753,2.753,0,0,1-2.715-2.753v-1.206a1.688,1.688,0,0,0-1.686-1.686.533.533,0,1,1,0-1.067,2.756,2.756,0,0,1,2.753,2.753v1.206a1.693,1.693,0,0,0,1.663,1.686h.061a.533.533,0,0,1-.007,1.067Z" transform="translate(-285.747 -410.627)"/><path class="a" d="M363.7,483.947h-4.47a.533.533,0,0,1,0-1.067h4.47a.533.533,0,1,1,0,1.067Z" transform="translate(-285.747 -410.617)"/><path class="b" d="M72.689,75.038H69.025a1.246,1.246,0,0,1-1.245-1.245V71.8a1.246,1.246,0,0,1,1.245-1.245h3.665A1.246,1.246,0,0,1,73.934,71.8v1.994A1.246,1.246,0,0,1,72.689,75.038Zm-3.665-3.416a.178.178,0,0,0-.178.178v1.994a.178.178,0,0,0,.178.178h3.665a.178.178,0,0,0,.178-.178V71.8a.178.178,0,0,0-.178-.178Zm12.311-2.309H79.664a2.241,2.241,0,1,1,0-4.483h1.671a2.241,2.241,0,1,1,0,4.483ZM79.664,65.9a1.175,1.175,0,0,0,0,2.349h1.671a1.175,1.175,0,0,0,0-2.349Zm1.671,9.141H79.664a2.242,2.242,0,0,1,0-4.483h1.671a2.242,2.242,0,0,1,0,4.483Zm-1.671-3.416a1.175,1.175,0,0,0,0,2.349h1.671a1.175,1.175,0,0,0,0-2.349Z"/><path class="b" d="M614.022,711.513h-1.671a2.242,2.242,0,0,1,0-4.483h1.671a2.242,2.242,0,1,1,0,4.483Zm-1.671-3.416a1.175,1.175,0,0,0,0,2.349h1.671a1.175,1.175,0,0,0,0-2.349Z" transform="translate(-532.687 -630.782)"/></g></svg>