<svg xmlns="http://www.w3.org/2000/svg" width="13.453" height="13.453" viewBox="0 0 13.453 13.453"><defs><style>.a{fill:#ff5a8c;}.b{fill:#ff92b3;}</style></defs><g transform="translate(-1715 -310.5)"><path class="a" d="M47.437,36.571a2.587,2.587,0,0,1,2.582,2.418l.005.169v1.868A.517.517,0,0,1,49,41.12l-.008-.093V39.159a1.552,1.552,0,0,0-1.4-1.545l-.149-.007H39.159a1.552,1.552,0,0,0-1.545,1.4l-.007.149v8.279a1.552,1.552,0,0,0,1.4,1.545l.149.007h6.956a.517.517,0,0,1,.093,1.027l-.093.008H39.159a2.587,2.587,0,0,1-2.582-2.418l-.005-.169V39.159a2.587,2.587,0,0,1,2.418-2.582l.169-.005h8.279Z" transform="translate(1678.429 273.929)"/><path class="b" d="M260.588,259.1a.517.517,0,0,1,.093,1.027l-.093.008h-4.139a.517.517,0,0,1-.093-1.027l.093-.008Zm2.07-3.1a.517.517,0,0,1,.093,1.027l-.093.008h-6.209a.517.517,0,0,1-.093-1.027l.093-.008Zm-2.07,6.209a.517.517,0,0,1,.093,1.027l-.093.008h-4.139a.517.517,0,0,1-.093-1.027l.093-.008Z" transform="translate(1462.174 57.605)"/><path class="a" d="M274.408,262.809h-2.07a.517.517,0,0,0-.517.517v5.1a.517.517,0,0,0,.142.356l1.045,1.105a.517.517,0,0,0,.755,0l1.025-1.105a.518.518,0,0,0,.138-.352v-5.1A.517.517,0,0,0,274.408,262.809Zm-.517,1.035v4.383l-.511.552-.524-.554v-4.38Z" transform="translate(1453.527 53.444)"/></g></svg>