<svg width="20" height="20" viewBox="0 0 20 20" fill="none" xmlns="http://www.w3.org/2000/svg">
<path d="M16.0308 2.69654C16.3822 2.34553 16.9519 2.34537 17.3032 2.69654C17.6547 3.04799 17.6546 3.6185 17.3032 3.96998L11.2729 9.99928L17.3032 16.0305C17.6545 16.382 17.6546 16.9516 17.3032 17.303C16.9518 17.6544 16.3822 17.6543 16.0308 17.303L9.99951 11.2727L3.97021 17.303C3.61875 17.6545 3.04825 17.6544 2.69678 17.303C2.34558 16.9516 2.34569 16.382 2.69678 16.0305L8.72705 9.99928L2.69678 3.96998C2.34542 3.61851 2.34538 3.04798 2.69678 2.69654C3.04821 2.3451 3.61873 2.34518 3.97021 2.69654L9.99951 8.72681L16.0308 2.69654Z" fill="#292B31"/>
</svg>
