<svg xmlns="http://www.w3.org/2000/svg" width="12" height="12" viewBox="0 0 12 12">
	<g transform="translate(-88.235 -121.596)">
		<rect width="12" height="12" fill="none" transform="translate(88.235 121.596)" />
		<g transform="translate(89.072 122.988)">
			<path fill="#4f46e5" d="M653.137,188.349a.4.4,0,0,1,.4.389v2.437a.4.4,0,0,1-.389.4h-2.437a.4.4,0,1,1-.015-.807h2.034v-2.018a.4.4,0,0,1,.389-.4Z" transform="translate(-643.441 -187.758)" />
			<path fill="#4f46e5" d="M129.42,144.779a4.844,4.844,0,0,1,6.794-.056l.057.056,1.713,1.713a.4.4,0,1,1-.559.583l-.012-.012L135.7,145.35a4.037,4.037,0,1,0,0,5.709.4.4,0,0,1,.571.571,4.844,4.844,0,0,1-6.851-6.851Z" transform="translate(-128.002 -143.36)" />
		</g>
	</g>
</svg>