<svg width="26" height="26" viewBox="0 0 26 26" fill="none" xmlns="http://www.w3.org/2000/svg">
<path d="M13 23.8332C17.4605 23.8332 21.1249 20.2984 21.1249 15.7613C21.1249 14.6475 21.0683 13.4535 20.4509 11.5978C19.8335 9.74215 19.7091 9.50262 19.0563 8.35662C18.7774 10.6953 17.2851 11.6699 16.906 11.9612C16.906 11.6582 16.0033 8.30678 14.6345 6.30153C13.2909 4.33317 11.4635 3.04179 10.392 2.1665C10.392 3.8293 9.92436 6.30153 9.25459 7.56118C8.58482 8.82083 8.45905 8.8667 7.62244 9.80411C6.78589 10.7415 6.4019 11.031 5.70234 12.1684C5.00281 13.3059 4.875 14.8208 4.875 15.9346C4.875 20.4717 8.53954 23.8332 13 23.8332Z" fill="#FDA01F"/>
</svg>
