<svg width="20" height="20" viewBox="0 0 20 20" fill="none" xmlns="http://www.w3.org/2000/svg">
<path d="M10 12C11.6569 12 13 10.6569 13 9C13 7.34315 11.6569 6 10 6C8.34315 6 7 7.34315 7 9C7 10.6569 8.34315 12 10 12Z" fill="#292B31"/>
<path d="M16.25 9.19238C16.25 5.6151 13.4327 2.75 10 2.75C6.5766 2.75 3.76529 5.59944 3.75 9.16309C3.98916 11.7971 5.59128 14.0804 7.22363 15.75C8.03499 16.5798 8.83365 17.2365 9.42871 17.6855C9.63963 17.8447 9.8247 17.9767 9.97461 18.0811C10.146 17.949 10.3654 17.7777 10.6172 17.5703C11.257 17.0432 12.108 16.2929 12.9561 15.3984C13.8062 14.5018 14.6383 13.4757 15.2549 12.3984C15.8738 11.317 16.25 10.2279 16.25 9.19238ZM17.75 9.19238C17.75 10.5815 17.2512 11.9315 16.5576 13.1436C15.8618 14.3595 14.9436 15.4818 14.0439 16.4307C13.1422 17.3818 12.2429 18.1744 11.5703 18.7285C11.2337 19.0058 10.9523 19.2246 10.7539 19.375C10.6546 19.4502 10.576 19.509 10.5215 19.5488C10.4943 19.5687 10.4728 19.5841 10.458 19.5947C10.4507 19.6 10.4445 19.6035 10.4404 19.6064C10.4384 19.6079 10.4355 19.6104 10.4355 19.6104L10.4346 19.6113C10.4346 19.6113 10.4432 19.6054 10.458 19.5947L10.4336 19.6123C10.2191 19.7642 9.94307 19.7914 9.70605 19.6904L9.60645 19.6387L9.60449 19.6367C9.60449 19.6367 9.60072 19.6351 9.59863 19.6338C9.5945 19.6312 9.58902 19.6274 9.58203 19.623C9.56762 19.614 9.54746 19.6007 9.52148 19.584C9.46932 19.5504 9.394 19.5021 9.2998 19.4385C9.11146 19.3113 8.84457 19.1244 8.52441 18.8828C7.88523 18.4004 7.02725 17.6946 6.15137 16.7988C4.416 15.0239 2.52495 12.4156 2.25293 9.25684L2.25 9.22461V9.19238C2.25 4.82526 5.70076 1.25 10 1.25C14.2992 1.25 17.75 4.82526 17.75 9.19238Z" fill="#292B31"/>
</svg>
