<svg xmlns="http://www.w3.org/2000/svg" width="16" height="16" viewBox="0 0 16 16"><defs><style>.a{fill:none;}.b{fill:#333;}</style></defs><g transform="translate(0.425)"><rect class="a" width="16" height="16" transform="translate(-0.425)"/><g transform="translate(0 0.256)"><path class="b" d="M7.2,1.8a5.4,5.4,0,1,0,5.4,5.4A5.408,5.408,0,0,0,7.2,1.8M7.2,0A7.2,7.2,0,1,1,0,7.2,7.2,7.2,0,0,1,7.2,0Z"/><path class="b" d="M2.329,3.06a.9.9,0,0,1-.612-.24L-.612.66A.9.9,0,0,1-.66-.612.9.9,0,0,1,.612-.66L2.941,1.5a.9.9,0,0,1-.612,1.56Z" transform="translate(12.075 12.244)"/></g></g></svg>