<svg xmlns="http://www.w3.org/2000/svg" width="13.716" height="14.036" viewBox="0 0 13.716 14.036"><defs><style>.a{fill:#b25611;}.b{fill:#ee893d;}.c{fill:#b15510;}</style></defs><g transform="translate(-1681.354 -393.025)"><path class="a" d="M51.665,48.733h2.682l.074,0v0h1.123V47.039c0-.02,0-.042,0-.063a1.153,1.153,0,0,0-.4-.81l-1.055-.912L52.9,44.228a1.216,1.216,0,0,0-.794-.293H43.912a1.182,1.182,0,0,0-1.2,1.167V56.8a1.183,1.183,0,0,0,1.2,1.167h6.4a.556.556,0,0,0,.561-.548.539.539,0,0,0-.165-.388.57.57,0,0,0-.4-.161h-6.4a.074.074,0,0,1-.074-.073V45.1a.074.074,0,0,1,.074-.071h6.559q0,.036,0,.071v2.465a1.185,1.185,0,0,0,1.2,1.169Zm2.682-1.1H51.665a.074.074,0,0,1-.074-.072V45.1a.074.074,0,0,1,.074-.073h.444a.068.068,0,0,1,.047.019L54.4,46.986v0a.073.073,0,0,1,.024.051v.527a.076.076,0,0,1-.076.073Z" transform="translate(1638.639 349.09)"/><path class="b" d="M47.639,52.108h3a.548.548,0,1,0,0-1.1h-3a.548.548,0,1,0,0,1.1ZM53,54.573a.556.556,0,0,0-.562-.548H47.639a.548.548,0,1,0,0,1.1h4.794A.556.556,0,0,0,53,54.573Zm-.562,2.465H47.639a.548.548,0,1,0,0,1.1h4.794a.548.548,0,1,0,0-1.1Z" transform="translate(1636.391 345.469)"/><path class="c" d="M65.891,56.227H62.579a.822.822,0,0,0-.832.81v7.147l2.466-2.1,2.508,2.074V57.038a.821.821,0,0,0-.831-.81ZM65.6,61.8,64.2,60.646l-1.333,1.132V57.322H65.6V61.8Z" transform="translate(1628.349 342.757)"/></g></svg>