<svg xmlns="http://www.w3.org/2000/svg" width="16" height="16" viewBox="0 0 16 16"><defs><style>.a-icon-fangda{fill:#58549b;}</style></defs><path class="a-icon-fangda" d="M71.3,79.2H67.52l4.15-4.145a.786.786,0,0,0-1.112-1.11l-4.217,4.209V74.412a.786.786,0,0,0-1.573,0v5.572a.785.785,0,0,0,.786.785h5.738a.786.786,0,1,0,0-1.571ZM79.984,64.77H74.246a.786.786,0,1,0,0,1.571H78.02l-4.15,4.143a.786.786,0,0,0,1.112,1.111l4.214-4.21v3.739a.786.786,0,0,0,1.573,0V65.553a.783.783,0,0,0-.785-.785Z" transform="translate(-64.768 -64.768)"/></svg>