<svg width="20" height="20" viewBox="0 0 20 20" fill="none" xmlns="http://www.w3.org/2000/svg">
<path d="M16.3641 16.364C12.8493 19.8787 7.15086 19.8787 3.63614 16.364C0.121427 12.8492 0.12143 7.15076 3.63614 3.63604C7.15086 0.121321 12.8493 0.121321 16.3641 3.63604C19.8788 7.15076 19.8788 12.8492 16.3641 16.364ZM14.4858 14.5147C14.876 14.1242 14.876 13.491 14.4858 13.1005L11.6574 10.2721L14.4858 7.44364C14.876 7.05317 14.876 6.41988 14.4858 6.02943C14.0954 5.63905 13.4621 5.63919 13.0716 6.02943L10.2432 8.85786L7.41475 6.02943C7.02429 5.63898 6.39107 5.63912 6.00053 6.02943C5.61003 6.41996 5.61002 7.05313 6.00053 7.44364L8.82896 10.2721L6.00053 13.1005C5.61003 13.491 5.61006 14.1242 6.00053 14.5147C6.39107 14.905 7.02429 14.9052 7.41475 14.5147L10.2432 11.6863L13.0716 14.5147C13.4621 14.905 14.0954 14.9051 14.4858 14.5147Z" fill="#ACACAC"/>
</svg>
