<svg xmlns="http://www.w3.org/2000/svg" width="13.885" height="13.885" viewBox="0 0 13.885 13.885"><defs><style>.a,.b{fill:#e44;}.b{stroke:#e44;stroke-width:0.8px;}</style></defs><g transform="translate(-188.3 -216.4)"><path class="a" d="M243.519,428.708v-.017a.077.077,0,0,0-.011.017Zm4.411-1.059a.351.351,0,0,1,.522.112.355.355,0,0,1-.153.528,1.008,1.008,0,0,1-.46.041c-.054-.006-.09-.15-.155-.268A1.8,1.8,0,0,1,247.93,427.65Zm-6.591,1c.18-.41.384-.81.584-1.209a.172.172,0,0,1,.114-.088c.213-.009.427,0,.681,0-.178.369-.339.7-.481.99.273-.015.537-.028.87-.047-.23.466-.434.88-.661,1.34l.462.028a5.234,5.234,0,0,1-.3.582,1.27,1.27,0,0,1-1.012-.086.459.459,0,0,1-.006-.294,2.707,2.707,0,0,1,.172-.389c.056-.12.116-.238.2-.4-.14,0-.249.009-.356,0C241.341,429.043,241.234,428.887,241.339,428.653Zm-3.8,1.5c-.037-.094.037-.228.047-.346.041-.438.084-.878.112-1.316.009-.15.071-.191.208-.185.185.009.369,0,.612,0-.146.9.021,1.823-.586,2.635C237.785,430.654,237.639,430.411,237.538,430.151Zm2.171.43a.609.609,0,0,1-.749.666.554.554,0,0,1-.464-.629l.449-.021v-3.234h.75c.006.073.015.131.015.189C239.711,428.56,239.714,429.572,239.709,430.581Zm1,.354a2.029,2.029,0,0,1-.425-1.069c-.054-.46-.071-.923-.112-1.383-.011-.125.017-.183.15-.178.737.021.556-.129.64.565.047.391.086.784.127,1.177a.236.236,0,0,1-.011.129C240.966,430.418,240.845,430.656,240.708,430.935Zm1.467.318c-.354,0-.709,0-1.063,0-.009-.028-.015-.056-.024-.084.11-.213.215-.425.329-.636a.164.164,0,0,1,.12-.075c.341.015.683.041,1.065.067-.122.236-.236.46-.354.681A.11.11,0,0,1,242.175,431.253Zm0,0" transform="translate(-47.779 -206.028)"/><path class="a" d="M474.384,431.318c-.017.7.107.569-.55.58-.576.009-1.153,0-1.729,0-.088,0-.176-.009-.3-.015.122-.243.219-.457.337-.661a.253.253,0,0,1,.187-.082c.178-.011.356,0,.55,0v-2.113c-.155-.032-.41-.037-.427-.1a3.021,3.021,0,0,1-.019-.7c.537,0,1.052,0,1.568.006.045,0,.095.079.131.131.015.019,0,.058,0,.088,0,.157.049.35-.024.46-.062.092-.271.088-.43.131v2.1c.185,0,.357.006.526,0C474.338,431.127,474.386,431.185,474.384,431.318Zm1.454-2.352v.6c.114-.019.288-.019.294-.054a1.06,1.06,0,0,0,0-.457C476.119,429.007,475.956,429,475.837,428.966Zm1.13,2.925a.624.624,0,0,1-.676-.644h.689c0-.273.015-.518-.009-.758a.275.275,0,0,0-.2-.163c-.3-.019-.61-.009-.945-.009v1.293c0,.29,0,.294-.3.29-.554,0-.462.062-.468-.457,0-.365,0-.732,0-1.13-.2,0-.378,0-.554,0-.127,0-.165-.049-.172-.172-.034-.588-.039-.588.537-.595.052,0,.1-.006.18-.011v-.5c-.021-.015-.032-.03-.045-.032-.421-.052-.421-.052-.421-.49v-.288h.449c.019-.084.032-.146.052-.228h.719c.015.064.03.133.047.213.35,0,.726.022.893.354a4.443,4.443,0,0,1,.241.973c-.021-.006.013.009.047.015.552.1.728.307.728.863,0,.286.011.569,0,.855A.678.678,0,0,1,476.967,431.891Zm0,0" transform="translate(-277.02 -206.664)"/><path class="b" d="M200.265,229.885H190.22a1.523,1.523,0,0,1-1.52-1.52V218.32a1.523,1.523,0,0,1,1.52-1.52h10.044a1.523,1.523,0,0,1,1.52,1.52v10.044A1.523,1.523,0,0,1,200.265,229.885ZM190.22,217.1a1.222,1.222,0,0,0-1.22,1.22v10.044a1.222,1.222,0,0,0,1.22,1.22h10.044a1.222,1.222,0,0,0,1.22-1.22V218.32a1.222,1.222,0,0,0-1.22-1.22Z" transform="translate(0 0)"/></g></svg>