<svg width="20" height="20" viewBox="0 0 20 20" fill="none" xmlns="http://www.w3.org/2000/svg">
<path d="M9.99791 1.33333C10.2834 1.33268 10.5448 1.49459 10.6717 1.75032L13.077 6.597L18.4413 7.37923C18.7234 7.42036 18.9584 7.61793 19.0467 7.88899C19.135 8.16001 19.0619 8.45811 18.8583 8.65755L14.9559 12.4779L15.8827 17.7874C15.932 18.0698 15.816 18.3556 15.5838 18.5238C15.3517 18.6919 15.0438 18.7133 14.7909 18.5784L9.99986 16.0238L5.20885 18.5784C4.95577 18.7133 4.64802 18.6921 4.41588 18.5238C4.1837 18.3553 4.06738 18.0689 4.11705 17.7865L5.04967 12.4779L1.14244 8.65755C0.938484 8.4581 0.865581 8.16023 0.953964 7.88899C1.04237 7.61771 1.27706 7.42017 1.55943 7.37923L6.95299 6.597L9.32603 1.75325L9.37975 1.66146C9.51769 1.4587 9.74819 1.33397 9.99791 1.33333ZM8.12584 7.61263C8.01685 7.83481 7.80532 7.98915 7.56041 8.02474L3.27525 8.64583L6.38267 11.6829C6.55944 11.856 6.63938 12.1053 6.59654 12.349L5.86021 16.5306L9.64635 14.513L9.73131 14.474C9.93267 14.3968 10.1595 14.4102 10.3524 14.513L14.1405 16.5316L13.411 12.348C13.3685 12.1047 13.4484 11.8558 13.6249 11.6829L16.7264 8.64485L12.4715 8.02474C12.228 7.9892 12.0175 7.83599 11.9081 7.61556L10.0038 3.77767L8.12584 7.61263Z" fill="#292B31"/>
</svg>
