<svg xmlns="http://www.w3.org/2000/svg" width="20" height="20" viewBox="0 0 20 20" class="icon_zhuanfa-icon-zf"><defs><style>.icon_zhuanfa-icon-zf .a-icon-zf{fill:none;}.icon_zhuanfa-icon-zf .b-icon-zf{fill:#333;}</style></defs><g transform="translate(-87.833 -121.596)"><rect class="a-icon-zf" width="20" height="20" transform="translate(87.833 121.596)"/><path class="b-icon-zf" d="M-882.346-5503.791a1.826,1.826,0,0,1-1.821-1.826v-11.3a1.825,1.825,0,0,1,1.821-1.825h5.129a.616.616,0,0,1,.614.618.616.616,0,0,1-.614.616h-5.043a.678.678,0,0,0-.676.679v11.128a.678.678,0,0,0,.676.679h12.908a.678.678,0,0,0,.674-.679v-4.467a.618.618,0,0,1,.616-.617.617.617,0,0,1,.615.612v4.558a1.826,1.826,0,0,1-1.82,1.826Zm5.151-5.367h0a.706.706,0,0,1-.053-1l5.93-6.482-1.558-1.4a.352.352,0,0,1-.087-.4.353.353,0,0,1,.35-.213l4.169-.3a.53.53,0,0,1,.479.431l-.112,3.957a.353.353,0,0,1-.283.412l-.065.005a.355.355,0,0,1-.235-.09l-1.608-1.449-5.93,6.482a.705.705,0,0,1-.525.233A.7.7,0,0,1-877.195-5509.158Z" transform="translate(973.513 5643.628)"/></g></svg>