<svg xmlns="http://www.w3.org/2000/svg" width="20.681" height="21.326" viewBox="0 0 20.681 21.326"><defs><style>.a-icon-speed15s,.b-icon-speed15s{fill:#333;}.b-icon-speed15s{stroke:rgba(0,0,0,0);font-size:10px;font-family:SourceHanSansSC-Bold, Source Han Sans SC;font-weight:700;}</style></defs><g transform="translate(-408.201 -5818.674)"><path class="a-icon-speed15s" d="M111.365,88.627l3.888.95a.2.2,0,0,0,.245-.19l.02-4.005a.2.2,0,0,0-.32-.156l-3.909,3.053a.2.2,0,0,0,.074.349Zm4.158,7.467-1.406-.484a.2.2,0,0,0-.251.119,8.79,8.79,0,1,1-2.028-9.247,9.029,9.029,0,0,1,.709.8l1.483-1.161a10.662,10.662,0,1,0,1.614,10.229.2.2,0,0,0-.122-.258Z" transform="translate(313.227 5736.648)"/><text class="b-icon-speed15s" transform="translate(413 5833)"><tspan x="0" y="0">15</tspan></text></g></svg>