<svg xmlns="http://www.w3.org/2000/svg" xmlns:xlink="http://www.w3.org/1999/xlink" width="34.068" height="35.336" viewBox="0 0 34.068 35.336"><defs><style>.a-icon-star-purple{fill:url(#a-icon-star-purple);}.b-icon-star-purple{filter:url(#e-icon-star-purple);}.c-icon-star-purple{filter:url(#b-icon-star-purple);}</style><linearGradient id="a-icon-star-purple" x1="0.123" y1="0.712" x2="1" y2="0.675" gradientUnits="objectBoundingBox"><stop offset="0" stop-color="#4f46e5"/><stop offset="0.464" stop-color="#9a57ff"/><stop offset="1" stop-color="#ff9270"/></linearGradient><filter id="b-icon-star-purple" x="9.303" y="0" width="24.766" height="25.611" filterUnits="userSpaceOnUse"><feOffset dy="3" input="SourceAlpha"/><feGaussianBlur stdDeviation="3" result="c"/><feFlood flood-color="#ffd8ab"/><feComposite operator="in" in2="c"/><feComposite in="SourceGraphic"/></filter><filter id="e-icon-star-purple" x="0" y="3.805" width="30.685" height="31.531" filterUnits="userSpaceOnUse"><feOffset dy="3" input="SourceAlpha"/><feGaussianBlur stdDeviation="3" result="f"/><feFlood flood-color="#ffd8ab" flood-opacity="0.651"/><feComposite operator="in" in2="f"/><feComposite in="SourceGraphic"/></filter></defs><g transform="translate(9 4.888)"><g class="c-icon-star-purple" transform="matrix(1, 0, 0, 1, -9, -4.89)"><path class="a-icon-star-purple" d="M3.383,0l.778,2.93,2.6.875-2.6.875-.778,2.93L2.6,4.681,0,3.806,2.6,2.93Z" transform="translate(18.3 6)"/></g><g class="b-icon-star-purple" transform="matrix(1, 0, 0, 1, -9, -4.89)"><path class="a-icon-star-purple" d="M6.343,0,7.8,5.209l4.884,1.556L7.8,8.322,6.343,13.531,4.884,8.322,0,6.766,4.884,5.209Z" transform="translate(9 9.8)"/></g></g></svg>