<svg xmlns="http://www.w3.org/2000/svg" width="16" height="16" viewBox="0 0 16 16"><defs><style>.a-invite-gift{fill:none;}.b-invite-gift{fill:#333;}</style></defs><g transform="translate(-1726 -202)"><rect class="a-invite-gift" width="16" height="16" transform="translate(1726 202)"/><path class="b-invite-gift" d="M75.754,64.838h-.534a2.181,2.181,0,0,0,.352-1.3,1.607,1.607,0,0,0-.784-1.215,2.249,2.249,0,0,0-1.819-.227,6.723,6.723,0,0,0-3.357,2.446,6.724,6.724,0,0,0-3.357-2.446,2.244,2.244,0,0,0-1.82.227,1.608,1.608,0,0,0-.783,1.215,2.174,2.174,0,0,0,.352,1.3h-.534A1.47,1.47,0,0,0,62,66.307V68.2a1.468,1.468,0,0,0,1.034,1.4,1.45,1.45,0,0,0-.089.5v5.677a1.471,1.471,0,0,0,1.469,1.469H74.809a1.47,1.47,0,0,0,1.468-1.469V70.091a1.444,1.444,0,0,0-.087-.5,1.469,1.469,0,0,0,1.032-1.4V66.307a1.47,1.47,0,0,0-1.468-1.469m-.945,11.353H70.133V69.668h4.676a.423.423,0,0,1,.422.423v5.677a.423.423,0,0,1-.422.423m-4.1-11.353a5.51,5.51,0,0,1,2.512-1.731,1.231,1.231,0,0,1,.992.086.568.568,0,0,1,.316.437,2,2,0,0,1-.623,1.208h-3.2Zm5.466,1.469V68.2a.422.422,0,0,1-.422.423h-5.62V65.884h5.62a.422.422,0,0,1,.422.423m-7.087,3.361v6.522H64.414a.423.423,0,0,1-.423-.423V70.091a.423.423,0,0,1,.423-.423h4.673Zm-4.4-6.038a.57.57,0,0,1,.315-.437A1.224,1.224,0,0,1,66,63.107a5.515,5.515,0,0,1,2.508,1.731H65.314a2,2,0,0,1-.621-1.208m-1.647,2.678a.423.423,0,0,1,.423-.423h5.62v2.737h-5.62a.423.423,0,0,1-.423-.423Z" transform="translate(1664.428 140.342)"/></g></svg>