<svg xmlns="http://www.w3.org/2000/svg" xmlns:xlink="http://www.w3.org/1999/xlink" width="40" height="40" viewBox="0 0 40 40"><defs><style>.a{fill:url(#a);}.b,.d,.e{fill:none;}.c{opacity:0.37;fill:url(#b);}.d,.e{stroke:#4f46e5;stroke-width:1.5px;}.e{stroke-linecap:round;}</style><linearGradient id="a" x1="0.5" x2="0.5" y2="0.821" gradientUnits="objectBoundingBox"><stop offset="0" stop-color="#f2efff"/><stop offset="1" stop-color="#fff"/></linearGradient><linearGradient id="b" x1="0.109" y1="0.06" x2="0.886" y2="1" gradientUnits="objectBoundingBox"><stop offset="0" stop-color="#5e7ff4"/><stop offset="0.498" stop-color="#b5a7ff"/><stop offset="1" stop-color="#7bedff"/></linearGradient></defs><circle class="a" cx="20" cy="20" r="20"/><g transform="translate(6.942 6.942)"><rect class="b" width="26" height="26" transform="translate(0.058 0.058)"/><g transform="translate(1.797 2.3)"><path class="c" d="M154.835,438.221v10.735a2.378,2.378,0,0,1-2.221,2.509h-18.2c-1.735,0-2.539-3.74-.951-4.528Z" transform="translate(-132.612 -430.168)"/><path class="d" d="M2.013,0H15.434c1.112,0,2.013.653,2.013,1.459v6.89L8.627,11.59,0,8.141V1.459C0,.653.9,0,2.013,0Z" transform="translate(2.824 0)"/><path class="d" d="M2.013,0l9.259,3.536L20.8,0a2.013,2.013,0,0,1,2.013,2.013v9.395A2.013,2.013,0,0,1,20.8,13.421H2.013A2.013,2.013,0,0,1,0,11.408V2.013A2.013,2.013,0,0,1,2.013,0Z" transform="translate(0.14 8.053)"/><line class="e" x2="6.711" transform="translate(8.193 5.033)"/></g></g></svg>