<svg xmlns="http://www.w3.org/2000/svg" xmlns:xlink="http://www.w3.org/1999/xlink" width="40" height="40" viewBox="0 0 40 40"><defs><style>.a{fill:url(#a);}.b,.c,.e{fill:none;}.c,.e{stroke:#4f46e5;stroke-linecap:round;stroke-width:1.5px;}.d{opacity:0.37;fill:url(#b);}.e{stroke-linejoin:round;}</style><linearGradient id="a" x1="0.5" x2="0.5" y2="0.821" gradientUnits="objectBoundingBox"><stop offset="0" stop-color="#f2efff"/><stop offset="1" stop-color="#fff"/></linearGradient><linearGradient id="b" x1="0.109" y1="0.06" x2="0.886" y2="1" gradientUnits="objectBoundingBox"><stop offset="0" stop-color="#5e7ff4"/><stop offset="0.498" stop-color="#b5a7ff"/><stop offset="1" stop-color="#7bedff"/></linearGradient></defs><g transform="translate(0.331)"><circle class="a" cx="20" cy="20" r="20" transform="translate(-0.331)"/><g transform="translate(6.942 6.942)"><rect class="b" width="26" height="26" transform="translate(-0.273 0.058)"/><g transform="translate(1.921 1.831)"><path class="c" d="M9849.025,3524.237v5.2" transform="translate(-9837.601 -3507.301)"/><path class="d" d="M147.551,438.221v11.04c0,1.755-2.119,3.917-3.469,4.835l-7.725.27c-.811-.648-4.057-4.107-3-5.105Z" transform="translate(-128.762 -438.221)"/><path class="c" d="M9837.1,3532.4h14.763" transform="translate(-9833.069 -3509.987)"/><path class="c" d="M0,0H14.763V9.395A7.382,7.382,0,1,1,0,9.395Z" transform="translate(4.026)"/><path class="e" d="M0,0H4.026a0,0,0,0,1,0,0V9.395a0,0,0,0,1,0,0h0A4.026,4.026,0,0,1,0,5.368V0A0,0,0,0,1,0,0Z" transform="translate(0 1.342)"/><path class="e" d="M0,0H4.026a0,0,0,0,1,0,0V5.368A4.026,4.026,0,0,1,0,9.395H0a0,0,0,0,1,0,0V0A0,0,0,0,1,0,0Z" transform="translate(18.79 1.342)"/></g></g></g></svg>