<svg xmlns="http://www.w3.org/2000/svg" xmlns:xlink="http://www.w3.org/1999/xlink" width="40" height="40" viewBox="0 0 40 40"><defs><style>.a{fill:url(#a);}.b,.d,.e,.f{fill:none;}.c{opacity:0.37;fill:url(#b);}.d,.e,.f{stroke:#4f46e5;stroke-width:1.5px;}.e,.f{stroke-linecap:round;}.e{stroke-linejoin:round;}</style><linearGradient id="a" x1="0.5" x2="0.5" y2="0.821" gradientUnits="objectBoundingBox"><stop offset="0" stop-color="#f2efff"/><stop offset="1" stop-color="#fff"/></linearGradient><linearGradient id="b" x1="0.109" y1="0.06" x2="0.886" y2="1" gradientUnits="objectBoundingBox"><stop offset="0" stop-color="#5e7ff4"/><stop offset="0.498" stop-color="#b5a7ff"/><stop offset="1" stop-color="#7bedff"/></linearGradient></defs><g transform="translate(-0.109)"><circle class="a" cx="20" cy="20" r="20" transform="translate(0.109)"/><g transform="translate(6.942 6.942)"><rect class="b" width="26" height="26" transform="translate(0.167 0.058)"/><g transform="translate(2.603 0.365)"><path class="c" d="M10233.66,3511.491l14.138-13.3s8.235,7.337.581,15.1C10239.089,3520.409,10233.66,3511.491,10233.66,3511.491Z" transform="translate(-10231.169 -3496.173)"/><circle class="d" cx="9.835" cy="9.835" r="9.835" transform="translate(0.747)"/><path class="e" d="M10194.869,3520.081l-3.009,5.12h3.8l1.85,2.956,3.166-5.173a13.774,13.774,0,0,1-3.379-1.056A9.6,9.6,0,0,1,10194.869,3520.081Z" transform="translate(-10191.86 -3503.351)"/><path class="e" d="M10197.668,3520.081l3.009,5.12h-3.8l-1.849,2.956-3.167-5.173a13.788,13.788,0,0,0,3.38-1.056A9.645,9.645,0,0,0,10197.668,3520.081Z" transform="translate(-10179.592 -3503.351)"/><path class="f" d="M10206.11,3504.3v5.279h4.539" transform="translate(-10196.111 -3498.203)"/></g></g></g></svg>