<svg xmlns="http://www.w3.org/2000/svg" xmlns:xlink="http://www.w3.org/1999/xlink" width="17.251" height="17.251" viewBox="0 0 17.251 17.251"><defs><style>.a{fill:#4f46e5;}.b{fill:url(#a);}</style><linearGradient id="a" x1="0.5" x2="0.5" y2="1" gradientUnits="objectBoundingBox"><stop offset="0" stop-color="#4f46e5"/><stop offset="1" stop-color="#b7b2ff"/></linearGradient></defs><path class="a" d="M380.254,331.845a.546.546,0,0,0-.776,0l-1.926,1.927-.776-.776a.549.549,0,0,0-.776.776l1.158,1.158a.546.546,0,0,0,.776,0l2.32-2.313a.546.546,0,0,0,0-.776Z" transform="translate(-369.507 -326.095)"/><path class="b" d="M8.625,0a8.625,8.625,0,1,0,8.625,8.625A8.625,8.625,0,0,0,8.625,0Zm1.5,13.693H7.215a.42.42,0,1,1,0-.841h2.908a.42.42,0,1,1,0,.841ZM11.892,8.81a3.653,3.653,0,0,1-1.208,1.158v1.7a.841.841,0,0,1-.873.8H7.433a.841.841,0,0,1-.873-.8v-1.7a3.653,3.653,0,0,1-1.2-1.158,3.271,3.271,0,0,1-.518-1.765A3.328,3.328,0,0,1,5.946,4.579a4.029,4.029,0,0,1,5.361,0,3.324,3.324,0,0,1,1.109,2.463,3.269,3.269,0,0,1-.523,1.767Z"/></svg>