<svg xmlns="http://www.w3.org/2000/svg" xmlns:xlink="http://www.w3.org/1999/xlink" width="34.523" height="34.522" viewBox="0 0 34.523 34.522"><defs><style>.a-link-colorful{fill:url(#a-link-colorful);}</style><linearGradient id="a-link-colorful" x1="0.109" y1="0.06" x2="0.886" y2="1" gradientUnits="objectBoundingBox"><stop offset="0" stop-color="#5e7ff4"/><stop offset="0.498" stop-color="#b5a7ff"/><stop offset="1" stop-color="#7bedff"/></linearGradient></defs><path class="a-link-colorful" d="M17.608.347A17.261,17.261,0,1,0,34.87,17.608,17.261,17.261,0,0,0,17.608.347ZM15.33,26.191a4.458,4.458,0,0,1-6.3-6.3l4.466-4.466a4.463,4.463,0,0,1,6.3,0c.047.047.092.095.137.144.026.022.051.044.076.069a1.066,1.066,0,0,1,.175.23l.017.022,0,0a1.068,1.068,0,0,1-1.453,1.439c-.028.03-.308-.249-.457-.4h0a2.316,2.316,0,0,0-3.28-.007l-4.473,4.473a2.324,2.324,0,0,0,0,3.287h0a2.324,2.324,0,0,0,3.287,0l2.693-2.693a3.477,3.477,0,0,0,2.977.04L15.33,26.191ZM26.191,15.33,21.725,19.8a4.463,4.463,0,0,1-6.3,0c-.047-.047-.092-.1-.137-.144-.026-.022-.051-.044-.075-.069a1.06,1.06,0,0,1-.175-.23l-.017-.022,0,0a1.068,1.068,0,0,1,1.453-1.439c.028-.03.308.249.457.4h0a2.315,2.315,0,0,0,3.279.007l4.473-4.473a2.324,2.324,0,0,0,0-3.287h0a2.324,2.324,0,0,0-3.287,0L18.7,13.227a3.488,3.488,0,0,0-2.977-.04l4.161-4.161a4.458,4.458,0,0,1,6.3,6.3Zm0,0" transform="translate(-0.347 -0.347)"/></svg>