<svg xmlns="http://www.w3.org/2000/svg" width="16" height="16" viewBox="0 0 16 16"><defs><style>.a-lock{fill:none;}.b-lock{fill:#333;}</style></defs><g transform="translate(-1726 -202)"><rect class="a-lock" width="16" height="16" transform="translate(1726 202)"/><g transform="translate(1669.95 174.71)"><path class="b-lock" d="M69,352.038H59.138a2.387,2.387,0,0,1-2.392-2.392V343.98a2.387,2.387,0,0,1,2.392-2.392h9.824a2.387,2.387,0,0,1,2.392,2.392v5.666A2.379,2.379,0,0,1,69,352.038Zm-9.863-9.346a1.3,1.3,0,0,0-1.288,1.288v5.666a1.3,1.3,0,0,0,1.288,1.288h9.824a1.3,1.3,0,0,0,1.288-1.288V343.98a1.3,1.3,0,0,0-1.288-1.288Z" transform="translate(0 -309.276)"/><path class="b-lock" d="M232.149,32.938h-1.1v-.994a3.569,3.569,0,0,0-7.136,0v.994h-1.1v-.994a4.673,4.673,0,1,1,9.346.037Zm-4.121,6.807h-1.1a1.649,1.649,0,0,1-1.656-1.656v-1.1a1.649,1.649,0,0,1,1.656-1.656h1.1a1.649,1.649,0,0,1,1.656,1.656v1.1a1.649,1.649,0,0,1-1.656,1.655Zm-1.1-3.312a.566.566,0,0,0-.552.552v1.1a.566.566,0,0,0,.552.552h1.1a.566.566,0,0,0,.552-.552v-1.1a.566.566,0,0,0-.552-.552Z" transform="translate(-163.405 0)"/></g></g></svg>