<svg xmlns="http://www.w3.org/2000/svg" width="16" height="16" viewBox="0 0 16 16"><defs><style>.a-policy-service{fill:none;}.b-policy-service{fill:#333;}</style></defs><g transform="translate(-1726 -169)"><rect class="a-policy-service" width="16" height="16" transform="translate(1726 169)"/><path class="b-policy-service" d="M11.629,0A1.955,1.955,0,0,1,13.58,1.95V5.717a.538.538,0,0,1-1.077,0V1.95a.88.88,0,0,0-.876-.875H7.135V4.642a.537.537,0,0,1-.771.485L5.1,4.519l-1.376.77a.537.537,0,0,1-.8-.469V1.075H1.95a.88.88,0,0,0-.875.877V12.4a.88.88,0,0,0,.877.875h2.3a.537.537,0,1,1,0,1.073H1.95A1.952,1.952,0,0,1,0,12.4V1.95A1.953,1.953,0,0,1,1.95,0h9.679ZM5.312,3.43l.747.359V1.075H4V3.9l.819-.459a.532.532,0,0,1,.5-.016ZM3.174,8.506H5.855a.538.538,0,1,0,0-1.077H3.174a.538.538,0,1,0,0,1.077Zm0,2.541H4.248a.538.538,0,0,0,0-1.076H3.174a.538.538,0,0,0,0,1.076Zm8.37-2.019a4.539,4.539,0,0,1,2.834,4.2,4.574,4.574,0,0,1-.065.733.538.538,0,0,1-.531.451H5.922a.538.538,0,0,1-.531-.452,4.435,4.435,0,0,1-.065-.734,4.537,4.537,0,0,1,2.832-4.2,2.324,2.324,0,1,1,3.385,0Zm-.44.985a3.452,3.452,0,0,0-2.562.022l1.322,1.14,1.24-1.162ZM11.1,7.438A1.249,1.249,0,1,0,9.85,8.687,1.25,1.25,0,0,0,11.1,7.438Zm-4.7,5.79c0,.036,0,.072,0,.109h6.9c0-.037,0-.073,0-.107a3.443,3.443,0,0,0-1.234-2.642l-1.818,1.7a.534.534,0,0,1-.368.145.54.54,0,0,1-.352-.131L7.584,10.629a3.442,3.442,0,0,0-1.184,2.6Z" transform="translate(1726.811 169.793)"/></g></svg>