<svg xmlns="http://www.w3.org/2000/svg" width="16" height="16.2" viewBox="0 0 16 16.2"><defs><style>.a-setting-account{fill:none;}.b-setting-account{fill:#333;stroke:#fff;stroke-width:0.2px;}</style></defs><g transform="translate(-1726 -168.9)"><rect class="a-setting-account" width="16" height="16" transform="translate(1726 169)"/><g transform="translate(1624.933 148.5)"><path class="b-setting-account" d="M108.392,35.165H104.4a.668.668,0,0,1-.667-.667v-2a3.336,3.336,0,0,1,3.329-3.333h4A3.3,3.3,0,0,1,113,29.8a.666.666,0,0,0,.78-1.081,4.614,4.614,0,0,0-2.721-.882h-4A4.667,4.667,0,0,0,102.4,32.5v2a2,2,0,0,0,2,2h3.994a.667.667,0,0,0,0-1.335Zm.667-8a3.333,3.333,0,1,0-3.329-3.333A3.331,3.331,0,0,0,109.059,27.166Zm0-5.333a2,2,0,1,1-2,2A2,2,0,0,1,109.059,21.833Z"/><path class="b-setting-account" d="M593.9,737.872a.674.674,0,0,0,.672.672H598.6a.672.672,0,0,0,0-1.345h-4.032A.677.677,0,0,0,593.9,737.872Zm4.7,2.352h-4.03a.672.672,0,0,0,0,1.345H598.6a.672.672,0,1,0,0-1.345Z" transform="translate(-483.542 -705.069)"/></g></g></svg>