<svg xmlns="http://www.w3.org/2000/svg" width="16.1" height="16.1" viewBox="0 0 16.1 16.1"><defs><style>.a{fill:none;}.b{fill:#333;stroke:#333;stroke-width:0.2px;}</style></defs><path class="a" d="M0,0H16V16H0Z"/><path class="b" d="M107.677,105.034a2.613,2.613,0,0,0-2.249,1.287l-4.2-1.705a3.3,3.3,0,0,0-.3-2.483l3.06-2.683a2.622,2.622,0,1,0-.7-.629l-2.922,2.562a3.341,3.341,0,1,0,.494,4.094L105.1,107.2a2.613,2.613,0,1,0,2.573-2.166Zm-2.325-9.491a1.678,1.678,0,1,1-1.678,1.678A1.68,1.68,0,0,1,105.353,95.543Zm-7.342,10.606a2.4,2.4,0,1,1,1.891-3.881.465.465,0,0,0,.062.093c.007.008.016.014.023.021a2.4,2.4,0,0,1-1.976,3.767Zm9.667,3.177a1.678,1.678,0,1,1,1.678-1.678A1.68,1.68,0,0,1,107.677,109.326Z" transform="translate(-94.292 -94.263)"/></svg>