<svg xmlns="http://www.w3.org/2000/svg" xmlns:xlink="http://www.w3.org/1999/xlink" width="34.564" height="34.759" viewBox="0 0 34.564 34.759"><defs><style>.a-user-add-colorful{fill:url(#a-user-add-colorful);}</style><linearGradient id="a-user-add-colorful" x1="0.109" y1="0.06" x2="0.886" y2="1" gradientUnits="objectBoundingBox"><stop offset="0" stop-color="#5e7ff4"/><stop offset="0.498" stop-color="#b5a7ff"/><stop offset="1" stop-color="#7bedff"/></linearGradient></defs><path class="a-user-add-colorful" d="M30.066,33.451a7.714,7.714,0,0,1-3.06-.616,7.882,7.882,0,0,1-4.215-4.215A7.838,7.838,0,0,1,24.485,20a8.088,8.088,0,0,1,2.521-1.675,7.909,7.909,0,0,1,6.12,0A7.745,7.745,0,0,1,37.3,22.5a7.909,7.909,0,0,1,0,6.12,8.09,8.09,0,0,1-1.674,2.521,7.8,7.8,0,0,1-5.562,2.31Zm3.888-9.161H31.105V21.633a1.333,1.333,0,0,0-.346-.924,1.138,1.138,0,0,0-.885-.385,1.025,1.025,0,0,0-.847.385,1.434,1.434,0,0,0-.308.924v2.656h-2.5A1.314,1.314,0,0,0,24.908,25.6a.922.922,0,0,0,.385.808,1.57,1.57,0,0,0,.924.269h2.5v2.733a1.433,1.433,0,0,0,.308.924,1.025,1.025,0,0,0,.847.385,1.138,1.138,0,0,0,.885-.385,1.333,1.333,0,0,0,.346-.924V26.676h2.849v.077a1.433,1.433,0,0,0,.924-.308,1.025,1.025,0,0,0,.385-.847,1.314,1.314,0,0,0-1.309-1.309ZM24.446,14.7q-.154.616-.308,1.116a7.186,7.186,0,0,1-.385.866,2.243,2.243,0,0,1-.5.674,1.525,1.525,0,0,0-.481.577,5.317,5.317,0,0,0-.231.635q-.1.327-.212.674a2.351,2.351,0,0,1-.385.693A9.61,9.61,0,0,0,20,24.251a7.947,7.947,0,0,0-.1,1.982,11.568,11.568,0,0,0,.308,1.905,8.917,8.917,0,0,0,.462,1.443,6.974,6.974,0,0,0,.9,1.54,9.026,9.026,0,0,0,1.521,1.54,12.607,12.607,0,0,0,2.31,1.443q-.924.192-2.156.346-1.039.116-2.56.212t-3.484.1q-1,0-2.329-.077t-2.733-.192q-1.4-.116-2.772-.27t-2.5-.327q-1.135-.173-1.925-.366a3.11,3.11,0,0,1-.982-.346,3.2,3.2,0,0,1-.539-1.713,14.155,14.155,0,0,1,.115-3.676,2.968,2.968,0,0,1,1.02-1.944,6.3,6.3,0,0,1,1.944-1.059q1.116-.385,2.329-.712a7.878,7.878,0,0,0,2.136-.9,5.936,5.936,0,0,0,1.116-.866,2.409,2.409,0,0,0,.539-.828,2.57,2.57,0,0,0,.154-.885q0-.462-.038-1a1.947,1.947,0,0,0-.558-1.27q-.481-.462-1.02-.924a1.916,1.916,0,0,1-.539-.693,8.451,8.451,0,0,1-.385-.885A6.412,6.412,0,0,1,9.934,14.7a1.774,1.774,0,0,1-.5-.231,2.57,2.57,0,0,1-.424-.462,3.13,3.13,0,0,1-.423-.924,2.493,2.493,0,0,1-.135-1.078,2.916,2.916,0,0,1,.212-.847,2.281,2.281,0,0,1,.423-.731,22.382,22.382,0,0,1,.154-2.618,21.214,21.214,0,0,1,.481-2.386,6.592,6.592,0,0,1,1.059-2.271,7.645,7.645,0,0,1,1.482-1.578A6.917,6.917,0,0,1,13.9.616,7.633,7.633,0,0,1,15.593.135,10.308,10.308,0,0,1,17.209,0a7.909,7.909,0,0,1,1.925.231,8.707,8.707,0,0,1,1.713.616,7.883,7.883,0,0,1,1.4.866,5.6,5.6,0,0,1,1,.981,7.319,7.319,0,0,1,1.29,2.464,19.949,19.949,0,0,1,.6,2.541,16.725,16.725,0,0,1,.154,2.772,1.676,1.676,0,0,1,.385.462,1.719,1.719,0,0,1,.231.616,2.993,2.993,0,0,1,0,.962,3.128,3.128,0,0,1-.308,1.155,2.309,2.309,0,0,1-.5.654,1.918,1.918,0,0,1-.654.385Z" transform="translate(-3.355)"/></svg>