<svg xmlns="http://www.w3.org/2000/svg" width="16" height="16" viewBox="0 0 16 16"><defs><style>.a{fill:none;}.b{fill:#333;}</style></defs><g transform="translate(-1726 -169)"><rect class="a" width="16" height="16" transform="translate(1726 169)"/><g transform="translate(1726.878 170.44)"><path class="b" d="M159.82,176h-11a1.624,1.624,0,0,0-1.624,1.624v7.247a1.624,1.624,0,0,0,1.624,1.624h11a1.624,1.624,0,0,0,1.624-1.624v-7.247A1.624,1.624,0,0,0,159.82,176Zm-11,1.25h11a.375.375,0,0,1,.375.375v7.247a.375.375,0,0,1-.375.375h-11a.375.375,0,0,1-.375-.375v-7.247A.375.375,0,0,1,148.824,177.25Z" transform="translate(-147.2 -176)"/><path class="b" d="M481.25,677.325v2.916H480v-2.916Z" transform="translate(-473.502 -667.537)"/><path class="b" d="M194.97,533a.625.625,0,0,1,.064,1.247l-.064,0h-6.116A.625.625,0,0,1,188.79,533l.064,0Zm3.642-5v1.25H185.6V528Z" transform="translate(-184.85 -521.127)"/></g></g></svg>