<svg xmlns="http://www.w3.org/2000/svg" width="42" height="42" viewBox="0 0 42 42"><defs><style>.a-wechat-share__wechat-share{fill:#fff;}.b-wechat-share__wechat-share{fill:#fc6b4f;}.c-wechat-share__wechat-share{fill:#7838f2;}.d-wechat-share__wechat-share{fill:#5698f3;}.e-wechat-share__wechat-share{fill:#20e9f4;}.f-wechat-share__wechat-share{fill:#00fd60;}.g-wechat-share__wechat-share{fill:#abfb5b;}.h-wechat-share__wechat-share{fill:#f0e254;}.i-wechat-share__wechat-share{fill:#f6b351;}</style></defs><g transform="translate(-69.76 -69.76)"><path class="a-wechat-share__wechat-share" d="M90.76,111.76a21,21,0,1,0-21-21A21,21,0,0,0,90.76,111.76Zm0-1.466a19.047,19.047,0,0,1-6.511-1.041V95.964L97.271,109.1A16.905,16.905,0,0,1,90.76,110.294Zm13.547-5.683a18.994,18.994,0,0,1-5.318,3.86l-9.406-9.4,18.493.091a17.072,17.072,0,0,1-3.761,5.448Zm5.615-13.737a18.994,18.994,0,0,1-1.041,6.5H95.592L108.736,84.37a16.859,16.859,0,0,1,1.193,6.5ZM98.867,73.4a16.889,16.889,0,0,1,5.44,3.753,19.131,19.131,0,0,1,3.867,5.318l-9.391,9.406ZM90.76,97.484a6.724,6.724,0,1,1,6.724-6.724A6.724,6.724,0,0,1,90.76,97.484Zm0-26.037a18.994,18.994,0,0,1,6.511,1.079v13.3L84.256,72.639A16.92,16.92,0,0,1,90.76,71.447ZM77.213,77.137a19.252,19.252,0,0,1,5.318-3.867l9.421,9.406-18.493-.1a16.89,16.89,0,0,1,3.753-5.44ZM71.606,90.874a18.994,18.994,0,0,1,1.041-6.5H85.935L72.791,97.378a17,17,0,0,1-1.185-6.5Zm11.146-1-.091,18.493a16.958,16.958,0,0,1-5.448-3.753,19.078,19.078,0,0,1-3.86-5.318Z" transform="translate(0)"/><path class="b-wechat-share__wechat-share" d="M388.322,106.352a19.606,19.606,0,0,0-6.721-1.114,17.465,17.465,0,0,0-6.721,1.231l13.434,13.567Z" transform="translate(-290.841 -33.737)"/><path class="c-wechat-share__wechat-share" d="M686.669,149.954a17.433,17.433,0,0,0-5.615-3.874l-.094,19.088,9.7-9.709A19.745,19.745,0,0,0,686.669,149.954Z" transform="translate(-582.595 -72.579)"/><path class="d-wechat-share__wechat-share" d="M627.484,390.866a19.605,19.605,0,0,0,1.074-6.713,17.4,17.4,0,0,0-1.231-6.713L613.76,390.866Z" transform="translate(-518.688 -293.281)"/><path class="e-wechat-share__wechat-share" d="M496.6,696.741a19.606,19.606,0,0,0,5.49-3.984,17.622,17.622,0,0,0,3.882-5.623l-19.088-.094Z" transform="translate(-398.027 -588.377)"/><path class="f-wechat-share__wechat-share" d="M375.04,635.316a19.66,19.66,0,0,0,6.713,1.074,17.449,17.449,0,0,0,6.713-1.231L375.04,621.6Z" transform="translate(-290.993 -526.144)"/><path class="g-wechat-share__wechat-share" d="M155.047,512.368l.094-19.088-9.7,9.7a19.692,19.692,0,0,0,3.984,5.49A17.5,17.5,0,0,0,155.047,512.368Z" transform="translate(-71.971 -404.114)"/><path class="h-wechat-share__wechat-share" d="M109.668,377.44a19.606,19.606,0,0,0-1.074,6.713,17.543,17.543,0,0,0,1.223,6.713l13.567-13.426Z" transform="translate(-36.928 -293.281)"/><path class="i-wechat-share__wechat-share" d="M157.364,144a19.872,19.872,0,0,0-5.49,3.992A17.434,17.434,0,0,0,148,153.607l19.088.1Z" transform="translate(-74.405 -70.601)"/></g></svg>