<svg xmlns="http://www.w3.org/2000/svg" xmlns:xlink="http://www.w3.org/1999/xlink" width="224.136" height="25.956" viewBox="0 0 224.136 25.956"><defs><style>.a-invitation-text_free{fill:url(#a-invitation-text_free);}</style><linearGradient id="a-invitation-text_free" x1="0.036" y1="0.264" x2="0.92" y2="0.5" gradientUnits="objectBoundingBox"><stop offset="0" stop-color="#333"/><stop offset="0.556" stop-color="#2c37d2"/><stop offset="1" stop-color="#333"/></linearGradient></defs><path class="a-invitation-text_free" d="M-2579.812-2778.676l-5.976-10.872h7.524l5.976,10.872Zm-18.108-12.24h-2.736l.5-3.42h2.7l1.26-8.892-1.152-1.368h8.208l-1.44,10.26h1.26l9.648-9.576h7.524l-9.648,9.576h10.368l-.5,3.42h-19.152l-1.116,8.028,4.176-.5-.468,3.42-11.16,1.3Zm-19.008,12.24,3.2-3.312,2.232-15.768h-7.164l.468-3.42h7.164l.36-2.412-.864-1.008h7.164l-.5,3.42h2.412l-.468,3.42h-2.412l-2.34,16.7a2.775,2.775,0,0,1-.972,1.71,2.763,2.763,0,0,1-1.836.666Zm-47.088,0,2.556-18.288h-3.456l.468-3.42h3.492l.432-3.1-.792-1.044h6.516l-.576,4.14h3.456l-.468,3.42h-3.492l-2.556,18.288Zm-18.288,0,3.24-3.348,1.08-7.848h-7.56l-6.336,11.2h-6.84l6.336-11.2h-3.384l.5-3.456h24.624l-1.728,12.276a2.639,2.639,0,0,1-.954,1.692,2.79,2.79,0,0,1-1.854.684Zm-97.524,0,3.2-3.312.684-4.824h-10.944l.4-2.736h10.944l.144-1.008h-10.944l.4-2.736h19.836l-.4,2.736h-2.736l-.144,1.008h3.42l-.4,2.736h-3.42l-.792,5.76a2.776,2.776,0,0,1-.972,1.71,2.762,2.762,0,0,1-1.836.666Zm-15.732,0,2.124-15.012-2.088.4.576-4.1,8.784-1.728-.576,4.1-2.3,16.344Zm150.3-.036,1.872-13.284h-2.52l-2.34,13.284h-6.336l4.284-23.832,15.8-2.052-.5,3.6-9.468,1.044-.828,4.536h10.152l-.5,3.42h-2.088l-1.872,13.284Zm-66.456,0-4.752-2.52-5.472,2.52h-9.612l12.1-5.58.36-2.556h6.84l-.36,2.556,10.476,5.58Zm-36.936-.612.216-1.656.972-7.128h-1.044l-7.524,8.784h-7.344l8.28-8.784h-6.264l1.332-9.612h14.868l2.16-2.448h-11.088l-1.26,1.656h-5.364l4-5.328-.684-.792h6.732l-1.044,1.332h16.992l-.432,3.24-2.052,2.34h4.464l-1.332,9.612h-7.092l-.648,4.788h7.02l1.584-1.368-.756,5.364Zm4.788-11.952h3.78l.468-3.276h-3.78Zm-10.656,0h3.744l.468-3.276h-3.744Zm120.06,11.3,3.1-22.212-.9-1.044h13.68l-3.24,23.256Zm5.94-3.42h1.692l.936-6.84h-1.692Zm1.44-10.26h1.692l.864-6.156h-1.692Zm-40.1,13.68,2.88-16.164h2.268l-2.88,16.164Zm-117.684-1.728-.792-4.1h6.156l.792,4.1Zm128.052-.324,1.4-14.112h2.268l-1.4,14.112Zm-51.264-.684-1.26-.684.612-4.356h-13.608l-.612,4.356-1.476.684h-4.824l1.116-7.848h25.992l-1.116,7.848Zm89.064-2.736-.036-9.576h4.788l.036,9.576Zm-89.388-5.8,1.368-1.44.108-.684h-1.836l-.288,2.088h-5.652l.252-2.088h-1.692l-2.124,2.088h-7.2l2.592-2.088h-6.192l.9-6.372h7.38l.18-1.116h-7.416l.4-2.736h7.272l-.72-.972h6.732l-.144.972h2.088l.144-.972h5.076l-.144.972h7.56l-.9,6.444h-7.56l-.144,1.044h8.28l-.36,2.772a2.479,2.479,0,0,1-.828,1.476,2.255,2.255,0,0,1-1.548.612Zm-7.128-4.86h2.052l.144-1.044h-2.052Zm-7.776,0h2.016l.144-1.044h-1.98Zm15.444-3.636h1.8l.144-1.116h-1.8Zm-7.164,0h2.088l.144-1.116h-2.088Zm40.428,5.4-5.4-10.26h6.84l5.4,10.26Zm-23.256,0,7.6-9.432-.684-.828h8.208l-8.28,10.26Zm-87.264,0,1.188-8.568-.864-1.008h19.476l-1.332,9.576Zm6.516-2.736h6.156l.144-1.008h-6.156Zm.432-3.06h6.156l.144-1.044h-6.156Zm-16.02-2.736,8.82-1.728-.576,4.1-8.82,1.728Z" transform="translate(2795.56 2804.632)"/></svg>