<svg xmlns="http://www.w3.org/2000/svg" xmlns:xlink="http://www.w3.org/1999/xlink" width="342" height="31" viewBox="0 0 342 31"><defs><style>.a-invitation-text_get{fill:#333;font-size:24px;font-family:YouSheBiaoTiHei;}.b-invitation-text_get{fill:url(#a-invitation-text_get);}</style><linearGradient id="a-invitation-text_get" y1="0.5" x2="1" y2="0.5" gradientUnits="objectBoundingBox"><stop offset="0" stop-color="#ded7f9"/><stop offset="1" stop-color="#ebe8f8" stop-opacity="0"/></linearGradient></defs><g transform="translate(-111 -477)"><text class="a-invitation-text_get" transform="translate(152 501)"><tspan x="0" y="0">仅需3步即可获得分析时长</tspan></text><path class="b-invitation-text_get" d="M21,4c-.553,0-1-.256-1-.572L19,.572C19,.257,19.447,0,20,0H35c.553,0,1,.257,1,.572l1,2.858C37,3.745,36.552,4,36,4ZM9,4c-.553,0-1-.256-1-.572L7,.572C7,.257,7.448,0,8,0h8c.553,0,1,.257,1,.572l1,2.858C18,3.745,17.552,4,17,4ZM2,4c-.553,0-1-.256-1-.572L0,.572C0,.257.447,0,1,0H4c.553,0,1,.257,1,.572L6,3.429C6,3.745,5.552,4,5,4Z" transform="translate(148 494) rotate(180)"/><path class="b-invitation-text_get" d="M21,0c-.553,0-1,.256-1,.571L19,3.429c0,.315.447.571,1,.571H35c.553,0,1-.256,1-.571L37,.571C37,.256,36.552,0,36,0ZM9,0C8.447,0,8,.256,8,.571L7,3.429C7,3.744,7.448,4,8,4h8c.553,0,1-.256,1-.571L18,.571C18,.256,17.552,0,17,0ZM2,0C1.447,0,1,.256,1,.571L0,3.429C0,3.744.447,4,1,4H4c.553,0,1-.256,1-.571L6,.571C6,.256,5.552,0,5,0Z" transform="translate(416.001 490)"/></g></svg>