<svg xmlns="http://www.w3.org/2000/svg" xmlns:xlink="http://www.w3.org/1999/xlink" width="210" height="31" viewBox="0 0 210 31"><defs><style>.a-invitation-text_activity{fill:#333;font-size:24px;font-family:YouSheBiaoTiHei;}.b-invitation-text_activity{fill:url(#a-invitation-text_activity);}</style><linearGradient id="a-invitation-text_activity" y1="0.5" x2="1" y2="0.5" gradientUnits="objectBoundingBox"><stop offset="0" stop-color="#ded7f9"/><stop offset="1" stop-color="#ebe8f8" stop-opacity="0"/></linearGradient></defs><g transform="translate(-91 -477)"><text class="a-invitation-text_activity" transform="translate(152 501)"><tspan x="0" y="0">活动规则</tspan></text><path class="b-invitation-text_activity" d="M-1937-2885c-.553,0-1-.257-1-.572l1-2.857c0-.316.447-.572,1-.572h35c.552,0,1,.256,1,.572l-1,2.857c0,.315-.448.572-1,.572Zm-12,0c-.552,0-1-.257-1-.572l1-2.857c0-.316.448-.572,1-.572h8c.553,0,1,.256,1,.572l-1,2.857c0,.315-.447.572-1,.572Zm-7,0c-.553,0-1-.257-1-.572l1-2.857c0-.316.447-.572,1-.572h3c.553,0,1,.256,1,.572l-1,2.857c0,.315-.447.572-1,.572Z" transform="translate(2201 3379)"/><path class="b-invitation-text_activity" d="M20,0c-.553,0-1,.257-1,.572l1,2.857c0,.316.447.572,1,.572H56c.552,0,1-.256,1-.572L56,.572C56,.257,55.552,0,55,0ZM8,0C7.448,0,7,.257,7,.572L8,3.429C8,3.745,8.447,4,9,4h8c.553,0,1-.256,1-.572L17,.572C17,.257,16.552,0,16,0ZM1,0C.447,0,0,.257,0,.572L1,3.429C1,3.745,1.447,4,2,4H5c.553,0,1-.256,1-.572L5,.572C5,.257,4.552,0,4,0Z" transform="translate(148 494) rotate(180)"/></g></svg>